<?xml version="1.0" encoding="utf-8"?>
<!-- Generator: Adobe Illustrator 14.0.0, SVG Export Plug-In . SVG Version: 6.00 Build 43363)  -->
<!DOCTYPE svg PUBLIC "-//W3C//DTD SVG 1.1//EN" "http://www.w3.org/Graphics/SVG/1.1/DTD/svg11.dtd">
<svg version="1.1" id="Layer_1" xmlns="http://www.w3.org/2000/svg" xmlns:xlink="http://www.w3.org/1999/xlink" x="0px" y="0px"
	 width="800px" height="600px" viewBox="0 0 800 600" enable-background="new 0 0 800 600" xml:space="preserve">
<g>
	<path fill="#052946" d="M448.355,298.869c0.307,0.238,0.866,0.952,0.182,1.063c-0.365,0.06-1.31-0.073-1.374-0.517
		c-0.052-0.349-0.13-1.001,0.259-1.198C447.796,298.033,448.234,298.573,448.355,298.869 M436.035,297.219
		c0.483,0.21,1.325,0.341,1.445,0.962c-0.768,0.252-1.705-0.132-2.48-0.21c-0.744-0.075-1.472-0.161-2.201-0.321
		c-0.601-0.131-1.263-0.141-1.848-0.326c-0.527-0.167-0.512-0.486-0.572-0.962c-0.042-0.339-0.133-0.823,0.069-1.127
		c0.278-0.413,1.091,0.052,1.401,0.199C433.221,296.075,434.647,296.611,436.035,297.219 M369.41,293.847
		c0.224,0.241,0.587,0.445,0.625,0.804c0.036,0.35-0.599,0.389-0.854,0.393c-0.791,0.003-1.541-0.11-2.337-0.04
		c-0.851,0.076-1.68-0.034-2.522,0.026c-0.835,0.057-1.654,0.279-2.496,0.272c-0.472-0.003-0.947-0.056-1.416,0.009
		c-0.383,0.054-0.753,0.166-1.132,0.228c-0.853,0.14-1.727,0.076-2.579,0.217c-1.678,0.28-3.348,0.381-5.045,0.223
		c0.12-0.447,1.291-0.58,1.651-0.688c0.268-0.083,0.512-0.208,0.809-0.27c0.417-0.092,0.835-0.177,1.251-0.265
		c1.785-0.372,3.579-0.678,5.358-1.086c0.925-0.214,1.839-0.234,2.775-0.358c0.823-0.112,1.636-0.243,2.466-0.276
		c0.683-0.026,1.37-0.164,2.05-0.122c0.374,0.019,0.494,0.11,0.777,0.314c0.141,0.101,0.262,0.094,0.372,0.245
		C369.249,293.595,369.312,293.733,369.41,293.847 M406.991,291.23c0.136-0.021,0.136-0.185,0.274-0.206
		c0.112-0.007,0.224-0.005,0.337,0.005c0.307,0.018,0.609,0.074,0.907,0.142c0.59,0.136,1.164,0.324,1.743,0.498
		c1.294,0.385,2.589,0.754,3.882,1.154c1.217,0.371,2.42,0.904,3.647,1.216c0.428,0.11,0.882,0.211,1.234,0.49
		c0.349,0.277,0.449,0.81-0.084,0.935c-0.483,0.109-0.98-0.259-1.42-0.398c-0.513-0.163-1.034-0.277-1.537-0.452
		c-1.203-0.425-2.437-0.744-3.646-1.141c-1.242-0.405-2.524-0.676-3.756-1.1C407.988,292.17,406.892,292.107,406.991,291.23
		 M345.734,290.129c0.482-0.098,1.046,0.014,0.814,0.633c-0.11,0.283-0.29,0.532-0.401,0.812c-0.015,0.094-0.039,0.184-0.071,0.275
		c-0.044,0.024-0.089,0.048-0.136,0.069c-0.175,0.39-0.682,0.436-1.051,0.515c-0.531,0.115-1.063,0.219-1.607,0.247
		c-0.273,0.014-0.526,0.077-0.643-0.217c-0.068-0.171-0.076-0.364-0.061-0.547c0.023-0.3,0.094-1.009,0.375-1.167
		C343.777,290.285,344.826,290.311,345.734,290.129 M372.232,288.27c-0.376-0.087-0.896-0.015-1.163-0.357
		c-0.276-0.356,0.787-0.518,1.004-0.528c0.507-0.02,1.006,0.016,1.511-0.054c0.534-0.076,1.065-0.198,1.607-0.231
		c2.329-0.131,4.657-0.097,6.985,0.029c2.331,0.129,4.652,0.292,6.981,0.447c2.234,0.146,4.438,0.49,6.648,0.826
		c0.91,0.134,1.816,0.283,2.72,0.45c0.403,0.075,0.787,0.185,1.181,0.29c0.295,0.076,0.424,0.012,0.694,0.073
		c0.369,0.08,1.507,0.213,1.704,0.571c0.255,0.465-0.04,0.882-0.525,0.887c-0.546,0.008-1.071-0.199-1.597-0.321
		c-0.707-0.161-1.44-0.214-2.157-0.311c-1.636-0.227-3.256-0.551-4.9-0.719c-1.789-0.187-3.564-0.468-5.356-0.604
		c-1.762-0.135-3.61-0.33-5.373-0.232c-0.866,0.05-1.71-0.013-2.575,0.033c-0.817,0.044-1.634,0.107-2.448,0.143
		c-0.875,0.04-1.761,0.107-2.636,0.1C373.69,288.755,373.037,288.458,372.232,288.27 M406.233,290.681
		c-0.068,0.784-0.053,1.596-0.246,2.365c-0.113,0.444-0.438,0.406-0.861,0.382c-0.382-0.025-0.76-0.104-1.135-0.16
		c-0.34-0.052-0.694-0.094-1.009-0.232c-0.395-0.174-0.3-0.612-0.313-0.995c-0.025-0.788,0.016-1.582,0.077-2.367
		c0.06-0.767,0.027-1.688,0.313-2.411c0.245-0.622,1.504-0.089,1.934,0.046c0.646,0.198,1.383,0.396,1.364,1.19
		C406.337,289.219,406.295,289.961,406.233,290.681 M347.456,284.691c0.454-0.043,1.174-0.25,1.098,0.454
		c-0.052,0.498-0.295,1.06-0.841,1.134c-1.258,0.175-2.487,0.556-3.749,0.726c-0.308,0.043-0.62,0.071-0.928,0.059
		c-0.367-0.016-0.429-0.146-0.519-0.498c-0.071-0.278-0.067-0.58,0.051-0.841c0.261-0.14,0.544-0.229,0.828-0.304
		C344.715,285.082,346.098,284.815,347.456,284.691 M343.738,281.18c0.506,0.087,1.038,0.158,1.498,0.395
		c0.357,0.183,0.01,0.443-0.236,0.501c-0.9,0.219-1.839,0.495-2.761,0.6c-0.532,0.061-0.761-0.214-0.958-0.688
		c-0.137-0.332-0.276-0.663-0.105-0.961C341.407,280.624,343.322,281.109,343.738,281.18 M348.486,278.151
		c0.415,0.033,1.451-0.05,1.55,0.502c0.084,0.451,0.017,0.971-0.224,1.366c-0.265,0.435-1.201,0.169-1.629,0.097
		c-0.589-0.095-1.175-0.187-1.765-0.276c-1.123-0.173-2.248-0.33-3.375-0.507c-1.085-0.168-2.321-0.221-3.298-0.77
		c0.335-0.456,1.219-0.45,1.733-0.479c0.696-0.038,1.39-0.117,2.085-0.099C345.205,278.029,346.848,278.019,348.486,278.151
		 M347.938,270.856c0.27,0.38,0.088,1.071,0.042,1.494c-0.027,0.22,0.031,0.53-0.16,0.658c-0.225,0.147-0.48,0.229-0.739,0.297
		c-0.574,0.143-1.171,0.235-1.757,0.341c-0.396,0.073-1.263,0.455-1.585,0.101c-0.001-0.27,0.112-0.489,0.309-0.665
		c0.175-0.162,0.245-0.421,0.368-0.63c0.282-0.477,0.598-1.005,0.947-1.437c0.258-0.316,0.926-0.306,1.288-0.352
		C347.046,270.612,347.649,270.455,347.938,270.856 M418.279,266.52c0.387-0.495,1.511,0.96,1.788,1.253
		c0.228,0.24,0.491,0.48,0.688,0.743c0.094,0.121,0.027,0.195,0.176,0.302c0.122,0.082,0.234,0.151,0.305,0.286
		c0.199,0.378,0.556,0.607,0.812,0.941c0.229,0.285,0.462,0.556,0.692,0.837c0.364,0.449,0.307,1.227,0.329,1.768
		c0.114,3.404,0.436,6.795,0.957,10.162c0.249,1.622,0.53,3.246,0.811,4.866c0.102,0.582,0.194,1.464,0.964,1.431
		c0.743-0.034,1.438-0.434,2.188-0.5c0.817-0.076,1.559-0.296,2.39-0.271c0.85,0.028,1.701-0.041,2.552-0.027
		c1.833,0.032,3.611,0.31,5.417,0.611c0.899,0.149,1.412,0.389,2.024,1.068c0.175,0.194,0.419,0.359,0.491,0.623
		c0.117,0.417-0.4,0.405-0.68,0.378c-1.706-0.173-3.399-0.363-5.117-0.389c-0.834-0.013-1.85-0.115-2.661,0.087
		c-0.091,0.024-0.468,0.168-0.499,0.1c-0.037-0.076-0.315,0.076-0.412,0.083c-0.223,0.015-1.668,0.132-0.871,0.563
		c0.451,0.242,1.334,0.079,1.821,0.092c3.372,0.114,6.597,0.795,9.854,1.628c0.864,0.223,1.446,0.413,2.02,1.123
		c0.362,0.448,0.939,0.85,1.197,1.372c0.469,0.959-1.346,0.228-1.696,0.141c-0.825-0.209-1.65-0.421-2.478-0.623
		c-0.893-0.221-1.796-0.424-2.707-0.552c-0.735-0.102-1.432-0.319-2.173-0.39c-0.872-0.082-1.745-0.179-2.618-0.25
		c-0.418-0.034-0.836-0.072-1.248-0.129c-0.341-0.049-0.662-0.171-1.008-0.13c-1.622,0.196-3.259,0.208-4.884,0.427
		c-0.851,0.117-1.692,0.26-2.526,0.46c-0.764,0.181-1.497,0.479-2.266,0.628c-0.487,0.095-0.659-0.129-0.878-0.554
		c-0.155-0.294-0.256-0.615-0.342-0.938c-0.188-0.722-0.372-1.447-0.563-2.172c-0.447-1.669-0.762-3.373-1.025-5.08
		c-0.532-3.448-0.995-6.937-1.13-10.426c-0.064-1.652-0.068-3.31-0.06-4.96c0.003-0.869,0.022-1.736,0.074-2.6
		C418.023,267.966,417.869,266.945,418.279,266.52 M425.161,258.95c0.151-0.143,0.097-0.268,0.382-0.201
		c0.217,0.053,0.388,0.214,0.531,0.374c0.321,0.36,0.608,0.762,0.918,1.135c0.699,0.843,1.416,1.687,2.143,2.495
		c0.546,0.604,1.049,1.242,1.577,1.858c0.48,0.556,0.736,0.976,0.795,1.723c0.133,1.69,0.33,3.379,0.564,5.061
		c0.231,1.634,0.428,3.28,0.694,4.91c0.073,0.452,0.191,0.835,0.128,1.291c-0.045,0.334,0.176,0.584,0.475,0.696
		c0.578,0.212,1.253-0.043,1.84-0.073c1.529-0.067,3.068,0.075,4.579,0.285c0.762,0.109,1.519,0.239,2.271,0.403
		c0.722,0.159,1.537,0.299,2.228,0.557c0.738,0.276,1.132,1.155,1.674,1.668c0.183,0.171,0.485,0.476,0.096,0.609
		c-0.347,0.117-0.716-0.005-1.053-0.085c-0.761-0.173-1.584-0.094-2.362-0.163c-0.595-0.051-1.192-0.092-1.79-0.123
		c-0.729-0.032-1.459-0.05-2.19-0.027c-0.304,0.01-0.607,0.027-0.912,0.06c-0.198,0.021-0.435,0.131-0.619,0.115
		c-0.333-0.03-1.635,0.164-0.793,0.549c0.539,0.249,1.349,0.155,1.928,0.196c1.688,0.122,3.342,0.309,4.996,0.683
		c1.572,0.358,3.077,1.046,4.657,1.346c0.892,0.165,1.402,0.414,2.019,1.088c0.484,0.525,0.979,1.052,1.449,1.583
		c0.229,0.259,0.541,0.583,0.41,0.963c-0.344,0.079-0.686-0.026-1.001-0.156c-0.684-0.278-1.39-0.406-2.09-0.629
		c-3.247-1.03-6.619-1.655-10.015-1.887c-3.217-0.221-6.624,0.248-9.666,1.298c-0.462,0.16-0.926,0.321-1.4,0.458
		c-0.382,0.11-0.675,0.266-0.918-0.137c-0.32-0.535-0.367-1.36-0.49-1.96c-0.34-1.69-0.638-3.398-0.85-5.108
		c-0.201-1.646-0.368-3.292-0.539-4.942c-0.194-1.842-0.191-3.691-0.236-5.542c-0.046-1.816,0.008-3.653,0.079-5.469
		c0.037-0.954,0.148-1.906,0.256-2.854c0.046-0.397,0.106-0.795,0.113-1.196C425.045,259.536,425.012,259.189,425.161,258.95
		 M416.007,256.058c0.388,0.207,0.93,0.33,1.032,0.826c-0.807,0.209-1.63-0.284-2.43-0.337c-0.553-0.037,0.158,0.615,0.278,0.765
		c0.282,0.357,0.605,0.671,0.896,1.019c0.573,0.68,1.745,0.734,2.569,0.927c0.982,0.235,1.97,0.416,2.927,0.741
		c0.394,0.137,0.812,0.176,1.211,0.297c0.428,0.128,0.611,0.237,0.64,0.686c0.05,0.83-0.033,1.661-0.103,2.486
		c-0.072,0.911-0.047,1.811-0.077,2.723c-0.008,0.3-0.012,0.638-0.177,0.902c-0.177,0.279-0.593,0.002-0.775-0.153
		c-0.601-0.513-1.152-1.19-1.655-1.796c-0.439-0.53-0.865-1.026-1.318-1.544c-1.209-1.393-2.432-2.774-3.662-4.153
		c-0.625-0.7-1.28-1.379-1.905-2.082c-0.089-0.101-0.027-0.188-0.161-0.281c-0.153-0.106-0.265-0.204-0.368-0.36
		c-0.18-0.272-0.41-0.411-0.607-0.654c-0.534-0.67-1.108-1.3-1.684-1.939c-0.194-0.217-0.317-0.467-0.529-0.668
		c-0.183-0.178-0.395-0.364-0.444-0.629c-0.146-0.788,0.939-0.584,1.186-0.115c0.248,0.481,0.75,0.8,1.078,1.23
		c0.416,0.548,1.271,0.726,1.882,1.013C414.548,255.313,415.284,255.672,416.007,256.058 M406.165,249.245
		c0.659-0.084,1.285,0.206,1.87,0.474c0.36,0.165,0.419,0.289,0.463,0.696c0.035,0.335,0.01,0.673-0.017,1.009
		c-0.049,0.626-0.13,1.23-0.155,1.858c-0.018,0.472-0.045,1.024-0.375,1.4c-0.652,0.155-1.312-0.085-1.907-0.343
		c-0.505-0.225-0.376-1.197-0.33-1.646c0.069-0.655,0.118-1.3,0.148-1.957C405.881,250.287,405.842,249.602,406.165,249.245
		 M432.939,248.625c0.099-0.171,0.257-0.26,0.451-0.176c0.436,0.194,0.64,0.704,0.991,1.002c0.257,0.299,0.559,0.545,0.832,0.823
		c0.206,0.209,0.308,0.459,0.531,0.676c1.099,1.068,2.033,2.257,3.113,3.319c0.325,0.322,0.605,0.677,0.904,1.023
		c0.226,0.265,0.509,0.481,0.716,0.762c0.327,0.444,1.021,0.933,1.063,1.519c-0.227,0.545-1.711,0.367-2.188,0.642
		c-0.406,0.237-0.17,0.63,0.203,0.719c0.49,0.12,1.025,0.074,1.527,0.092c0.649,0.023,1.418-0.095,2.04,0.127
		c0.188,0.069,0.555,0.304,0.586,0.52c0.034,0.23,0.411,0.462,0.571,0.615c0.367,0.357,0.847,1.14-0.008,1.199
		c-0.664,0.042-1.326,0.064-1.99,0.139c-0.495,0.057-1.6,0.104-1.911,0.592c-0.383,0.607,1.153,0.45,1.408,0.459
		c0.908,0.027,1.812,0.086,2.711,0.227c0.422,0.067,0.829,0.171,1.248,0.242c0.336,0.057,0.713,0.009,1.031,0.139
		c0.614,0.249,0.996,0.993,1.434,1.458c0.212,0.224,0.438,0.476,0.486,0.794c0.054,0.34-0.516,0.352-0.759,0.348
		c-1.68-0.024-3.328-0.076-4.987,0.257c-0.342,0.067-0.669,0.181-1.019,0.203c-0.207,0.016-0.434,0.062-0.452,0.312
		c0.02,0.565,1.206,0.336,1.522,0.282c1.617-0.286,3.365,0.36,4.947,0.655c0.821,0.151,1.604,0.423,2.43,0.571
		c0.348,0.064,0.697,0.186,1.018,0.347c0.328,0.165,0.479,0.496,0.73,0.748c0.223,0.224,1.57,1.43,0.965,1.675
		c-0.688,0.281-1.558-0.081-2.271-0.104c-0.896-0.029-1.75-0.275-2.649-0.317c-0.813-0.038-1.629-0.042-2.44-0.009
		c-0.769,0.028-1.536,0.15-2.282,0.318c-0.269,0.062-0.547,0.174-0.662,0.448c0.201,0.231,0.527,0.235,0.81,0.225
		c0.879-0.037,1.703,0.127,2.572,0.21c0.853,0.079,1.637,0.139,2.469,0.343c0.478,0.115,0.965,0.173,1.444,0.259
		c0.207,0.037,0.414,0.079,0.62,0.132c0.079,0.017,0.129,0.119,0.209,0.137c0.8,0.177,1.547,0.331,2.329,0.586
		c0.772,0.252,1.504,0.626,2.279,0.859c0.356,0.107,0.771,0.097,1.103,0.276c0.286,0.155,0.49,0.436,0.689,0.688
		c0.975,1.242,2.19,2.278,3.159,3.534c0.39,0.502-0.337,0.414-0.625,0.316c-0.358-0.125-0.679-0.324-1.022-0.478
		c-0.715-0.321-1.453-0.578-2.147-0.947c-0.389-0.207-0.812-0.287-1.225-0.43c-0.331-0.115-0.641-0.304-0.983-0.395
		c-0.682-0.174-1.331-0.48-2.01-0.681c-1.674-0.491-3.365-0.894-5.088-1.179c-3.372-0.563-6.724-0.334-10.026,0.51
		c-0.833,0.213-1.678,0.6-2.54,0.642c-0.619,0.029-0.741-1.235-0.823-1.687c-0.15-0.827-0.353-1.607-0.458-2.45
		c-0.106-0.839-0.304-1.665-0.424-2.503c-0.241-1.734-0.358-3.481-0.593-5.216c-0.229-1.718-0.11-3.48-0.173-5.21
		c-0.063-1.763,0.037-3.507,0.124-5.268c0.046-0.91,0.093-1.823,0.174-2.732c0.039-0.401,0.095-0.801,0.123-1.204
		C432.772,249.303,432.738,248.887,432.939,248.625 M405.131,251.585c0.16,0.368,0.094,1.459-0.45,1.452
		c-0.643-0.006-1.214-0.436-1.814-0.625c-1.479-0.463-2.916-0.968-4.369-1.509c-1.218-0.451-2.39-0.815-3.622-1.175
		c-1.293-0.382-2.612-0.677-3.904-1.077c-0.49-0.153-0.689-0.803-0.155-1.059c0.468-0.222,1.373,0.136,1.863,0.232
		c1.425,0.273,2.803,0.63,4.204,0.997c1.578,0.412,3.175,0.755,4.73,1.249c0.702,0.224,1.379,0.51,2.075,0.758
		C404.092,250.973,404.937,251.136,405.131,251.585 M380.354,246.63c-0.734-0.148-1.48-0.266-2.199-0.483
		c-0.039-0.163,3.633,0.036,3.986,0.071c1.213,0.123,2.557,0.16,3.738,0.495c0.443,0.125,0.903,0.658,0.217,0.852
		c-0.51,0.143-1.049-0.154-1.543-0.247C383.158,247.052,381.745,246.904,380.354,246.63 M387.651,245.047
		c0.492-0.074,1.026-0.082,1.513,0.046c0.65,0.176,0.704,0.639,0.579,1.249c-0.241,1.221,0.142,2.718-0.364,3.87
		c-0.198,0.456-1.328,0.059-1.684-0.048c-0.626-0.188-0.473-1.007-0.45-1.54c0.031-0.656,0.128-1.309,0.133-1.967
		C387.382,246.138,387.281,245.476,387.651,245.047 M416.832,265.626c-0.109,0.666-0.152,1.337-0.258,2.002
		c-0.034,0.237-0.034,0.709-0.278,0.802c-0.224,0.084-0.459,0.128-0.689,0.181c-0.297,0.064-1.317,0.292-0.91,0.73
		c0.329,0.354,0.881,0.389,1.307,0.564c0.58,0.236,0.539,0.818,0.562,1.378c0.029,0.64-0.002,1.281-0.077,1.913
		c-0.777,0.781-2.375,0.488-3.359,0.474c-0.505-0.005-1.327-0.119-1.768,0.19c-0.433,0.305,1.052,0.602,1.207,0.645
		c0.709,0.2,1.423,0.405,2.133,0.626c0.491,0.157,1.076,0.267,1.529,0.526c0.409,0.233,0.477,0.684,0.465,1.117
		c-0.007,0.324-0.002,0.801-0.388,0.88c-0.326,0.068-0.66,0.012-0.988,0.018c-1.508,0.01-3.01-0.102-4.514-0.18
		c-0.943-0.047-1.889-0.085-2.832-0.096c-0.318-0.002-0.686-0.089-0.995-0.01c-0.416,0.102-0.179,0.382,0.084,0.513
		c0.602,0.307,1.423,0.421,2.071,0.597c0.38,0.105,0.771,0.252,1.164,0.3c0.323,0.041,0.599,0.205,0.922,0.274
		c1.493,0.333,2.873,0.893,4.328,1.359c0.474,0.15,1.036,0.318,1.34,0.742c0.306,0.431,0.24,1.03-0.352,1.107
		c-0.715,0.096-1.475-0.139-2.181-0.203c-0.161-0.015-0.313,0.057-0.516,0.017c-0.265-0.049-0.525-0.108-0.792-0.155
		c-0.859-0.15-1.698-0.358-2.572-0.452c-0.868-0.093-1.742-0.14-2.611-0.205c-3.63-0.27-7.204-0.645-10.85-0.41
		c-0.489,0.032-0.972,0.089-1.461,0.113c-0.303,0.015-0.636,0.007-0.901,0.172c-0.591,0.371,0.713,0.521,0.871,0.547
		c1.713,0.276,3.423,0.504,5.129,0.848c3.535,0.71,7.017,1.633,10.466,2.686c1.673,0.509,3.327,1.081,4.987,1.626
		c0.457,0.149,0.905,0.314,1.336,0.527c0.398,0.2,0.446,0.411,0.567,0.833c0.104,0.352,0.168,0.729,0.107,1.099
		c-0.062,0.37-0.67,0.23-0.961,0.165c-0.421-0.091-0.816-0.269-1.218-0.412c-0.34-0.127-0.689-0.148-1.031-0.254
		c-0.793-0.242-1.578-0.503-2.376-0.729c-1.702-0.485-3.411-0.937-5.119-1.396c-3.269-0.874-6.532-1.436-9.873-1.938
		c-0.912-0.138-1.816-0.316-2.727-0.449c-0.758-0.114-1.526-0.317-2.283-0.392c-0.82-0.079-1.638-0.16-2.459-0.237
		c-0.276-0.028-0.176,0.05-0.399-0.013c-0.231-0.065-0.49-0.056-0.727-0.06c-1.587-0.029-3.175-0.267-4.762-0.348
		c-1.795-0.092-3.579-0.061-5.376-0.021c-0.937,0.023-1.873,0.007-2.81,0.038c-0.876,0.028-1.721,0.159-2.59,0.245
		c-1.757,0.176-3.497,0.317-5.242,0.587c-0.958,0.146-1.916,0.248-2.868,0.407c-0.773,0.131-1.528,0.347-2.297,0.482
		c-0.319,0.056-0.827,0.149-1.09-0.099c0-0.349,0.148-0.667,0.335-0.953c0.419-0.641,0.849-1.26,1.23-1.93
		c0.401-0.698,0.862-1.357,1.249-2.056c0.172-0.306,0.356-0.609,0.543-0.907c0.072-0.115,0.089-0.236,0.153-0.35
		c0.063-0.105,0.131-0.055,0.207-0.216c0.354-0.72,0.751-1.41,1.071-2.147c0.152-0.346,0.307-0.691,0.512-1.007
		c0.169-0.26,0.223-0.534,0.376-0.814c1.725-3.12,2.899-6.576,3.692-10.04c0.768-3.361,0.893-6.874,0.114-10.241
		c-0.368-1.604-0.902-3.164-1.573-4.667c-0.136-0.307-0.929-2.149-1.292-1.9c-0.495,0.341-0.453,0.977-0.405,1.505
		c0.074,0.781,0.062,1.553-0.165,2.311c-0.112,0.363-0.245,0.723-0.401,1.062c-0.118,0.252-0.282,0.387-0.406,0.601
		c-0.642,1.117-1.902,1.788-2.899,2.495c-1.213,0.866-2.469,1.63-3.854,2.203c-1.537,0.64-3.127,1.062-4.763,1.342
		c-0.367,0.062-0.746,0.159-1.037,0.403c-0.226,0.19,0.064,0.302,0.259,0.355c0.507,0.133,1.075,0.048,1.587,0.002
		c1.59-0.137,3.23,0.033,4.82,0.148c1.796,0.127,3.586,0.29,5.368,0.542c0.884,0.124,1.758,0.29,2.641,0.432
		c0.479,0.079,1.272,0.252,0.982,0.935c-0.34,0.785-1.238,0.413-1.873,0.313c-0.741-0.109-1.479-0.216-2.22-0.305
		c-1.587-0.192-3.188-0.337-4.785-0.426c-3.305-0.19-6.581-0.323-9.894-0.24c-0.328,0.007-2.046,0.293-1.561-0.521
		c0.305-0.514,0.953-0.967,1.376-1.387c0.302-0.294,0.638-0.577,0.908-0.902c0.116-0.139,0.155-0.353,0.276-0.484
		c0.138-0.151,0.219-0.383,0.388-0.521c0.124-0.106,0.077-0.19,0.163-0.306c0.081-0.109,0.13-0.008,0.189-0.178
		c0.242-0.704,0.865-1.363,1.241-2.011c0.397-0.687,0.706-1.413,0.984-2.153c0.564-1.509,1.04-3.198,1.165-4.809
		c0.057-0.727,0.03-1.49-0.017-2.218c-0.03-0.416-0.155-1.058,0.216-1.362c0.242-0.202,0.847,0.07,1.113,0.141
		c0.374,0.098,0.75,0.207,1.124,0.296c0.784,0.196,1.573,0.344,2.353,0.555c1.756,0.477,3.535,0.843,5.303,1.26
		c0.448,0.109,0.9,0.208,1.333,0.364c0.355,0.13,0.599,0.296,0.988,0.318c0.807,0.041,1.604,0.229,2.387,0.415
		c3.545,0.842,7.086,1.711,10.638,2.531c7.211,1.665,14.381,3.505,21.571,5.241c1.698,0.408,3.385,0.851,5.081,1.256
		c0.652,0.156,1.511,0.222,2.059,0.645c0.564,0.431,0.983,1.05,1.466,1.569c0.588,0.636,1.234,1.262,1.773,1.938
		c0.217,0.27,0.422,0.703,0.72,0.887c0.23,0.14,0.273,0.357,0.452,0.547c0.521,0.555,1.123,1.071,1.546,1.708
		C417.007,264.61,416.914,265.127,416.832,265.626 M368.242,243.119c0.286,0.038,1.086,0.054,1.034,0.496
		c-0.046,0.41-0.462,0.742-0.748,0.998c-0.591,0.533-1.083,0.686-1.855,0.48c-1.812-0.485-3.646-0.963-5.487-1.34
		c-0.542-0.113-1.085-0.222-1.612-0.382c-0.414-0.124-0.793-0.452-0.163-0.595c0.877-0.2,1.821-0.027,2.708,0.011
		C364.165,242.866,366.202,242.86,368.242,243.119 M360.395,241.262c-0.527,0.074-1.066,0.238-1.598,0.124
		c-0.458-0.1-0.042-0.628,0.155-0.822c0.664-0.655,1.305-1.253,1.886-1.985c0.304-0.389,0.646-0.752,0.91-1.168
		c0.258-0.399,0.48-0.827,0.766-1.206c0.593-0.792,0.977-1.625,1.412-2.511c0.839-1.718,1.445-3.541,1.735-5.437
		c0.144-0.936,0.33-1.862,0.372-2.813c0.017-0.436-0.012-0.85-0.064-1.281c-0.032-0.261-0.096-0.64,0.074-0.868
		c0.375-0.51,1.841,0.173,2.346,0.326c0.761,0.227,1.526,0.433,2.292,0.644c0.871,0.238,1.737,0.475,2.606,0.722
		c0.384,0.107,0.773,0.214,1.157,0.319c0.34,0.094,0.66,0.308,1.012,0.356c0.733,0.098,1.498,0.386,2.209,0.595
		c0.715,0.21,0.456,0.654,0.212,1.171c-0.647,1.387-1.58,2.61-2.34,3.922c-0.682,1.186-1.677,2.332-2.631,3.327
		c-1.204,1.264-2.567,2.418-4.001,3.41c-1.274,0.881-2.648,1.501-4.05,2.135C363.48,240.845,361.882,241.053,360.395,241.262
		 M379.459,223.779c-0.015,0.252-0.039,0.529-0.163,0.756c-0.149,0.262-0.31,0.206-0.576,0.168
		c-0.612-0.092-1.205-0.295-1.808-0.443c-1.142-0.283-2.228-0.683-3.363-0.981c-1.132-0.295-2.262-0.592-3.392-0.911
		c-0.447-0.126-0.858-0.307-1.312-0.398c-0.305-0.06-0.622-0.183-0.673-0.532c0.258-0.168,0.743-0.129,1.036-0.12
		c0.548,0.016,1.098,0.054,1.648,0.09c1.217,0.081,2.432,0.198,3.641,0.357c1.128,0.146,2.269,0.293,3.391,0.493
		c0.414,0.07,0.949,0.118,1.303,0.366C379.518,222.854,379.477,223.438,379.459,223.779 M408.505,220.407
		c0.353-0.297,0.848-0.056,1.18,0.146c0.412,0.257,0.338,0.749,0.296,1.18c-0.084,0.884,0.182,2.13-0.357,2.903
		c-0.226,0.32-0.97,0.048-1.219-0.163c-0.383-0.319-0.186-0.865-0.191-1.323c-0.005-0.536-0.006-1.055,0.099-1.583
		C408.363,221.31,408.26,220.557,408.505,220.407 M407.541,221.645c0.199,1.369-1.625,0.326-2.162,0.113
		c-1.064-0.423-2.139-0.821-3.222-1.187c-1.094-0.371-2.193-0.721-3.305-1.023c-0.483-0.129-0.97-0.253-1.433-0.437
		c-0.207-0.084-1.05-0.361-0.758-0.603c0.227-0.188,1.145,0.081,1.416,0.132c0.546,0.102,1.088,0.236,1.626,0.372
		c0.96,0.242,1.854,0.553,2.829,0.704c0.987,0.152,1.972,0.504,2.928,0.8C405.974,220.677,407.444,220.974,407.541,221.645
		 M380.491,218.204c0.16-0.414,0.768-0.149,1.053-0.053c0.433,0.141,0.871,0.236,1.309,0.347c0.906,0.235,1.794,0.568,2.691,0.833
		c1.915,0.567,3.834,1.129,5.746,1.7c6.903,2.059,13.779,4.241,20.705,6.237c0.862,0.246,1.788,0.436,2.62,0.777
		c0.608,0.25,1.07,0.821,1.498,1.299c0.544,0.607,1.116,1.187,1.635,1.816c0.372,0.451,0.987,0.892,1.216,1.433
		c0.183,0.42-0.032,0.492-0.421,0.491c-0.286-0.003-0.568-0.054-0.854-0.08c-0.261-0.022-1.42,0.064-0.916,0.603
		c0.157,0.171,0.507,0.218,0.721,0.285c0.36,0.115,0.721,0.204,1.071,0.352c0.721,0.3,1.474,0.522,2.19,0.823
		c1.397,0.588,2.367,1.993,3.387,3.096c1.212,1.318,2.401,2.659,3.612,3.98c0.624,0.687,1.218,1.418,1.869,2.078
		c0.509,0.514,0.95,1.084,1.459,1.596c0.256,0.253,1.115,1.361,0.386,1.559c-0.705,0.195-1.427-0.285-2.108-0.4
		c-0.886-0.152-1.792-0.231-2.683-0.369c-0.808-0.126-1.617-0.232-2.425-0.331c-0.468-0.057-0.944-0.085-1.404-0.187
		c-0.181-0.041-0.892-0.163-0.749,0.194c0.192,0.486,1.009,0.582,1.426,0.793c1.506,0.757,3.059,1.39,4.536,2.21
		c0.431,0.239,0.86,0.484,1.299,0.717c0.272,0.147,0.561,0.331,0.854,0.433c0.151,0.053,0.193,0.172,0.313,0.255
		c0.105,0.071,0.244,0.063,0.345,0.138c0.206,0.154,0.369,0.353,0.416,0.61c0.152,0.87-1.364,0.457-1.837,0.398
		c-0.785-0.099-1.538-0.344-2.328-0.453c-1.758-0.246-3.486-0.715-5.24-1.005c-0.849-0.14-1.729-0.316-2.594-0.311
		c-0.434,0.003-1.697,0.178-1.559-0.565c0.066-0.368,0.341-0.67,0.522-0.982c0.171-0.295,0.311-0.612,0.438-0.928
		c0.297-0.729,0.253-1.112-0.577-1.279c-3.078-0.623-6.13-1.279-9.222-1.807c-1.575-0.265-3.149-0.411-4.736-0.584
		c-0.795-0.084-1.577-0.131-2.38-0.091c-0.734,0.038-1.588-0.016-2.291,0.252c0.049,0.384,1.575,0.527,1.867,0.605
		c0.874,0.231,1.743,0.488,2.62,0.719c1.892,0.502,3.76,0.995,5.613,1.638c1.654,0.571,3.271,1.218,4.892,1.879
		c0.802,0.328,1.613,0.657,2.434,0.943c0.738,0.256,1.39,0.613,2.095,0.952c0.827,0.4,1.695,0.716,2.535,1.087
		c0.769,0.338,1.494,0.747,2.244,1.125c1.607,0.806,3.264,1.526,4.825,2.426c0.662,0.381,1.313,0.701,1.993,1.04
		c0.54,0.273,0.658,0.766,0.607,1.354c-0.079,0.937-0.787,0.564-1.348,0.236c-0.64-0.376-1.308-0.738-1.925-1.152
		c-0.652-0.437-1.367-0.777-2.062-1.146c-0.3-0.158-0.55-0.425-0.854-0.563c-0.275-0.126-0.484-0.383-0.773-0.462
		c-1.435-0.388-2.738-1.213-4.113-1.806c-6.075-2.62-12.352-4.841-18.813-6.459c-1.759-0.442-3.535-0.742-5.324-1.032
		c-1.791-0.291-3.566-0.641-5.371-0.836c-3.474-0.374-6.935-0.578-10.431-0.551c-1.72,0.013-3.44,0.063-5.158,0.146
		c-0.835,0.039-1.677,0.071-2.509,0.148c-0.349,0.03-1.818,0.314-1.565-0.38c0.222-0.603,0.93-1.103,1.337-1.581
		c0.539-0.629,0.971-1.345,1.493-1.99c0.913-1.125,1.734-2.268,2.476-3.42c0.971-1.503,1.832-3.081,2.588-4.7
		c0.349-0.741,0.682-1.493,1.016-2.235c0.273-0.611,0.364-1.417,0.522-2.07c0.212-0.869,0.286-1.765,0.441-2.642
		c0.073-0.401,0.155-0.811,0.134-1.218c-0.027-0.386-0.083-0.745-0.038-1.133c0.098-0.814-0.094-1.666-0.151-2.482
		C380.727,219.746,380.458,218.992,380.491,218.204 M376.018,214.625c-0.512-0.162-1.661-0.363-1.647,0.519
		c0.003,0.372-0.034,0.861,0.271,1.134c0.256,0.229,0.729,0.232,1.049,0.299c0.26,0.056,0.485,0.187,0.74,0.251
		c0.225,0.057,0.461,0.016,0.688,0.069c0.401,0.095,0.807,0.215,1.169,0.412c0.443,0.24,0.607,0.346,0.622,0.895
		c-0.187,0.254-0.514,0.33-0.807,0.352c-0.872,0.065-1.733,0.032-2.607,0.131c-1.045,0.119-2.092,0.185-3.135,0.3
		c-0.569,0.064-1.142,0.098-1.713,0.157c-0.417,0.045-0.816,0.203-1.238,0.231c-0.325,0.023-1.211,0.133-0.975-0.415
		c0.13-0.302,0.436-0.477,0.694-0.658c0.297-0.209,0.489-0.519,0.765-0.757c0.279-0.242,0.571-0.474,0.84-0.728
		c0.258-0.243,0.405-0.544,0.645-0.794c0.248-0.257,0.506-0.501,0.738-0.773c0.926-1.092,1.664-2.303,2.338-3.559
		c0.697-1.3,1.31-2.812,1.512-4.275c0.063-0.452,0.058-1.323,0.681-1.34c0.707-0.021,1.44,0.428,2.11,0.615
		c0.824,0.226,1.627,0.497,2.436,0.762c0.564,0.185,1.314,0.292,1.78,0.679c0.45,0.37-0.052,1.395-0.167,1.844
		c-0.16,0.642-0.362,1.267-0.648,1.865c-0.318,0.663-0.627,1.28-1.203,1.742c-0.554,0.447-1.101,0.935-1.704,1.318
		c-0.172,0.108-0.408,0.112-0.546,0.268c-0.079,0.087-0.155,0.189-0.28,0.213c-0.193,0.038-0.542-0.108-0.734-0.154
		C377.091,215.083,376.594,214.808,376.018,214.625 M431.699,211.321c0.837,0.278,1.713,0.459,2.505,0.866
		c0.273,0.14,0.254,0.678,0.335,0.988c0.063,0.238,0.225,0.763-0.063,0.892c-0.544,0.238-1.182-0.05-1.73-0.131
		c-0.224-0.032-0.475-0.045-0.68,0.074c-0.267,0.154,0.03,0.535,0.187,0.662c0.534,0.426,1.248,0.693,1.847,1.018
		c0.497,0.271,1.483,0.564,1.726,1.12c0.152,0.341,0.645,1.797,0.034,1.835c-0.699,0.048-1.536-0.478-2.19-0.699
		c-0.839-0.281-1.688-0.484-2.538-0.714c-0.297-0.078-1.834-0.277-1.267,0.457c0.182,0.233,0.43,0.268,0.694,0.339
		c0.358,0.095,0.718,0.339,1.041,0.513c0.735,0.397,1.465,0.809,2.189,1.223c0.731,0.414,1.443,0.854,2.151,1.309
		c0.389,0.246,0.854,0.571,0.882,1.078c0.015,0.279-0.096,0.733-0.409,0.776c-0.349,0.048-0.672-0.128-0.981-0.257
		c-0.741-0.316-1.52-0.567-2.282-0.821c-1.632-0.543-3.243-1.14-4.903-1.585c-0.233-0.062-2.102-0.733-2.082-0.176
		c0.007,0.202,0.448,0.254,0.581,0.318c0.367,0.177,0.734,0.355,1.104,0.525c1.365,0.63,2.762,1.256,4.154,1.808
		c0.315,0.124,0.396,0.428,0.721,0.564c0.281,0.116,0.448,0.34,0.731,0.44c0.551,0.198,0.9,0.522,1.343,0.862
		c0.203,0.154,0.469,0.278,0.688,0.412c0.291,0.181,0.535,0.435,0.81,0.639c0.308,0.224,0.35,0.339,0.411,0.726
		c0.047,0.294,0.047,0.638-0.316,0.669c-0.815,0.073-1.692-0.635-2.403-0.951c-0.769-0.341-1.563-0.625-2.338-0.955
		c-0.829-0.353-1.625-0.773-2.442-1.142c-0.662-0.301-1.45-0.671-2.16-0.817c-0.432-0.091-0.861-0.116-1.277-0.29
		c-0.354-0.148-0.707-0.272-1.076-0.385c-0.729-0.214-1.44-0.591-2.217-0.589c-0.051,0.646,1.21,1.031,1.653,1.238
		c0.97,0.45,1.928,0.916,2.877,1.406c0.96,0.491,1.905,1.009,2.836,1.554c0.792,0.464,1.558,1.035,2.381,1.435
		c0.604,0.291,1.151,0.722,1.739,1.048c0.592,0.328,1.215,0.756,1.763,1.157c0.253,0.185,0.524,0.438,0.524,0.778
		c-0.001,0.427-0.269,0.642-0.672,0.524c-0.348-0.099-0.616-0.357-0.916-0.538c-0.428-0.26-0.856-0.51-1.29-0.759
		c-3.05-1.753-6.132-3.52-9.294-5.072c-1.538-0.752-3.105-1.461-4.681-2.131c-1.418-0.606-2.772-1.244-4.221-1.779
		c-3.314-1.226-6.682-2.309-10.114-3.156c-1.689-0.419-3.344-0.807-5.06-1.099c-0.455-0.077-0.908-0.154-1.366-0.225
		c-0.406-0.059-0.787-0.223-1.196-0.252c-0.793-0.061-1.565-0.178-2.353-0.296c-3.333-0.496-6.732-0.805-10.098-0.972
		c-0.71-0.037-1.571,0.146-2.25-0.095c-0.736-0.264,0.253-0.929,0.504-1.164c0.35-0.321,0.638-0.698,0.967-1.04
		c0.2-0.213,0.673-0.554,0.722-0.85c0.026-0.164,0.379-0.446,0.492-0.594c0.231-0.306,0.462-0.615,0.675-0.936
		c0.413-0.614,0.923-1.205,1.27-1.852c0.307-0.57,0.767-1.104,1.038-1.68c0.177-0.373,0.241-0.792,0.429-1.172
		c0.171-0.341,0.337-0.684,0.47-1.041c0.271-0.723,0.469-1.48,0.652-2.229c0.182-0.765,0.219-1.583,0.292-2.365
		c0.06-0.657-0.061-1.315,0.02-1.967c0.096-0.778,0.711-0.659,1.281-0.409c0.688,0.297,1.414,0.471,2.116,0.719
		c6.483,2.277,12.959,4.521,19.454,6.742c2.903,0.995,5.9,1.954,8.811,3.017C425.169,209.053,428.423,210.237,431.699,211.321
		 M412.43,189.778c-0.583-0.861-1.957-1.095-2.43-0.019c-0.434,0.983-0.275,2.335-0.33,3.385c-0.069,1.437-0.155,2.874-0.289,4.306
		c-0.063,0.683-0.14,1.364-0.229,2.042c-0.07,0.522-0.063,1.071-0.202,1.581c-0.123,0.445-0.454,0.568-0.879,0.443
		c-0.646-0.189-1.278-0.448-1.913-0.673c-1.24-0.439-2.478-0.88-3.728-1.293c-1.325-0.436-2.643-0.902-3.957-1.378
		c-1.172-0.428-2.338-0.94-3.547-1.249c-1.7-0.438-3.345-1.205-5.006-1.776c-0.753-0.258-3.88-1.912-3.884-0.159
		c-0.003,1.117,1.656,0.783,2.207,1.435c0.845,0.999,0.501,2.851,0.518,4.048c0.009,0.882-0.247,1.732-0.544,2.551
		c-0.259,0.718-0.476,1.475-0.773,2.173c-0.256,0.597-0.482,1.261-0.916,1.759c-0.425,0.49-0.96,0.26-1.492,0.067
		c-3.281-1.176-6.647-2.129-9.941-3.271c-0.766-0.265-1.59-0.649-2.415-0.672c-0.58-0.021-1.156,0.398-1.08,1.034
		c0.091,0.712,1.137,0.745,1.679,0.896c0.767,0.212,1.179,0.419,1.077,1.309c-0.095,0.819-0.292,1.638-0.534,2.422
		c-0.199,0.647-0.341,1.295-0.683,1.878c-0.222,0.381-0.262,0.817-0.533,1.181c-0.228,0.304-0.432,0.619-0.63,0.947
		c-0.423,0.687-0.841,1.389-1.393,1.984c-0.528,0.571-1.078,1.165-1.575,1.761c-0.46,0.562-1.034,0.974-1.593,1.44
		c-0.644,0.536-1.313,1.042-2.042,1.453c-0.215,0.122-0.365,0.275-0.601,0.354c-0.263,0.09-0.43,0.372-0.709,0.479
		c-0.686,0.273-1.184-0.07-1.855-0.087c-0.479-0.014-1.256,0.25-1.275,0.829c-0.037,1.137,2.646,0.565,2.848,1.755
		c0.257,1.507,0.187,3.041,0,4.553c-0.101,0.841-0.175,1.607-0.456,2.411c-0.248,0.716-0.343,1.471-0.598,2.192
		c-0.978,2.76-2.58,5.302-4.63,7.403c-0.606,0.625-1.275,1.191-1.971,1.713c-0.48,0.363-1.025,0.951-1.652,1.036
		c-0.77,0.101-1.666-0.343-2.413-0.507c-0.684-0.152-1.419-0.433-2.124-0.44c-0.718-0.004-1.095,0.594-0.711,1.209
		c0.286,0.457,1.1,0.547,1.576,0.656c0.854,0.192,1.693,0.441,2.547,0.635c0.574,0.135,1.312,0.186,1.459,0.859
		c0.326,1.476,0.245,2.926,0.023,4.409c-0.079,0.525-0.15,1.166-0.456,1.616c-0.325,0.477-1.329-0.002-1.762-0.082
		c-1.659-0.32-3.295-0.73-4.948-1.085c-0.902-0.194-1.801-0.39-2.695-0.612c-0.681-0.173-1.467-0.432-2.165-0.482
		c-0.524-0.036-1.167,0.36-1.224,0.918c-0.074,0.676,1.017,0.765,1.477,0.866c0.844,0.184,1.693,0.342,2.538,0.528
		c0.502,0.107,1.486,0.16,1.694,0.734c0.147,0.402,0.216,0.818,0.385,1.213c0.136,0.321,0.267,0.617,0.331,0.958
		c0.155,0.804,0.219,1.629,0.337,2.439c0.12,0.859,0.224,1.726,0.234,2.594c0.005,0.397,0.002,0.776-0.114,1.154
		c-0.096,0.308-0.017,0.652-0.184,0.938c-0.18,0.298-0.5,0.457-0.758,0.683c-0.224,0.198-0.38,0.474-0.631,0.646
		c-0.479,0.32-1.232,0.018-1.728-0.108c-1.601-0.396-3.256-0.567-4.86-0.96c-0.488-0.119-1.125,0.075-1.364,0.551
		c-0.295,0.58,0.251,0.785,0.723,0.897c1.377,0.335,2.764,0.638,4.146,0.97c0.747,0.177,1.53,0.274,2.259,0.516
		c0.623,0.204,0.746,0.658,0.608,1.251c-0.318,1.369-1.059,2.718-1.681,3.968c-0.775,1.558-1.746,3.019-2.811,4.395
		c-0.552,0.711-1.09,1.44-1.679,2.12c-0.489,0.564-1.043,1.063-1.54,1.616c-0.397,0.444-0.845,1.182-1.489,1.275
		c-0.341,0.048-0.699-0.064-1.027-0.149c-0.318-0.079-0.803-0.03-1.08-0.165c-0.316-0.152-0.636-0.041-0.948-0.195
		c-0.253-0.127-0.62-0.132-0.896-0.167c-0.492-0.061-1.132-0.133-1.573,0.153c-0.404,0.262-0.428,0.884-0.11,1.223
		c0.322,0.345,0.858,0.44,1.301,0.51c1.431,0.219,2.865,0.364,4.29,0.63c0.517,0.096,0.825,0.101,1.11,0.571
		c0.188,0.31,0.325,0.647,0.456,0.982c0.27,0.686,0.606,1.301,0.775,2.019c0.109,0.459,0.301,0.89,0.428,1.342
		c0.114,0.397,0.107,0.769,0.139,1.176c0.034,0.392,0.221,0.735,0.327,1.109c0.113,0.393,0.116,0.826,0.121,1.233
		c0.009,0.916,0.031,1.843,0.019,2.761c-0.007,0.78-0.268,1.478-0.372,2.243c-0.116,0.856-0.337,1.588-0.62,2.401
		c-0.113,0.336-0.209,0.688-0.204,1.044c0.224,0.258,0.571,0.194,0.873,0.197c0.426,0.004,0.838,0.17,1.26,0.216
		c0.208,0.024,0.412-0.021,0.619,0c0.191,0.021,0.357,0.115,0.551,0.136c0.205,0.028,0.411-0.022,0.618,0
		c0.192,0.027,0.361,0.116,0.553,0.14c0.441,0.055,0.884,0.105,1.325,0.159c1.74,0.21,3.483,0.422,5.225,0.643
		c3.593,0.452,7.215,0.821,10.788,1.41c0.399,0.068,0.766,0.035,1.11,0.101c0.423,0.079,0.849,0.148,1.275,0.21
		c0.835,0.122,1.669,0.252,2.503,0.378c1.708,0.251,3.429,0.377,5.133,0.634c0.88,0.133,1.76,0.301,2.648,0.38
		c0.512,0.042,1.41-0.033,1.814,0.357c0.527,0.504,0.676,1.299,1.048,1.903c0.158,0.261,0.284,0.45,0.389,0.738
		c0.059,0.153,0.187,0.127,0.259,0.244c0.091,0.151,0.095,0.341,0.207,0.483c-0.847,0.238-1.618,0.68-2.423,1.021
		c-0.666,0.278-1.326,0.55-1.991,0.823c-0.191,0.082-0.458,0.203-0.48,0.447c-0.032,0.348,0.815,0.135,0.999,0.084
		c0.827-0.229,1.672-0.383,2.518-0.541c0.395-0.072,0.79-0.156,1.182-0.254c0.184-0.045,0.369-0.08,0.559-0.08
		c0.283,0,0.239,0.188,0.312,0.424c0.128,0.412,0.256,0.822,0.38,1.234c0.059,0.209,0.122,0.419,0.182,0.625
		c-0.2,0.074-0.397,0.148-0.596,0.227c-1.523,0.6-2.951,1.449-4.483,2.012c-0.238,0.087-1.72,0.852-0.828,1.007
		c0.288,0.05,0.546-0.127,0.792-0.248c0.285-0.136,0.699-0.144,1.007-0.231c1.558-0.431,3.163-0.754,4.748-1.076
		c0.322-0.065,0.405,0.494,0.497,0.781c0.111,0.359,0.184,0.744,0.137,1.123c-0.053,0.416-0.349,0.338-0.654,0.467
		c-0.349,0.15-0.653,0.367-1.014,0.507c-1.615,0.62-3.085,1.493-4.627,2.274c-0.781,0.398-1.576,0.779-2.342,1.211
		c-0.354,0.201-1.067,0.469-1.25,0.854c-0.229,0.482,0.54,0.255,0.778,0.162c0.344-0.133,0.68-0.268,1.029-0.376
		c0.736-0.228,1.467-0.459,2.195-0.71c0.739-0.254,1.495-0.413,2.235-0.659c0.802-0.269,1.605-0.513,2.427-0.724
		c0.475-0.121,0.955-0.232,1.442-0.313c0.212-0.036,0.426-0.067,0.641-0.093c0.034,0.179,0.079,0.354,0.122,0.531
		c0.094,0.371,0.178,0.75,0.156,1.137c-0.037,0.514-0.21,0.469-0.623,0.605c-0.717,0.232-1.486,0.514-2.153,0.866
		c-0.626,0.327-1.269,0.533-1.913,0.829c-1.522,0.691-3.035,1.376-4.551,2.082c-1.588,0.739-3.028,1.58-4.462,2.583
		c-0.414,0.292-0.82,0.595-1.227,0.89c-0.304,0.219-0.684,0.414-0.93,0.691c-0.32,0.355-1.081,0.563-0.937,1.209
		c2.948-1.167,5.739-2.71,8.722-3.793c1.477-0.538,3.058-0.841,4.512-1.428c0.707-0.285,1.465-0.346,2.164-0.627
		c0.677-0.272,1.427-0.518,2.153-0.619c-0.037,0.592,0.313,1.445-0.145,1.896c-0.424,0.418-0.994,0.637-1.539,0.831
		c-1.425,0.511-2.818,1.21-4.152,1.916c-2.503,1.325-5.062,2.446-7.337,4.111c-0.999,0.729-2.072,1.356-3.012,2.164
		c-0.35,0.298-0.953,0.864-0.769,1.387c0.126,0.358,0.655,0.634,1,0.5c0.49-0.196,0.942-0.519,1.415-0.758
		c0.709-0.36,1.421-0.709,2.142-1.05c1.139-0.54,2.318-1.038,3.489-1.512c6.555-2.664,13.504-4.15,20.487-5.138
		c0.9-0.125,1.798-0.243,2.704-0.329c0.719-0.064,1.593-0.238,2.309-0.088c0.465,0.094,0.47,0.535,0.443,0.954
		c-0.015,0.222-0.076,0.543-0.297,0.653c-0.443,0.232-1.111,0.168-1.596,0.191c-0.718,0.035-1.429,0.172-2.146,0.2
		c-0.249,0.007-0.516,0.004-0.76,0.063c-0.217,0.058-0.14-0.021-0.38,0.021c-1.545,0.261-3.098,0.447-4.641,0.696
		c-3.565,0.568-7.092,1.395-10.548,2.438c-3.367,1.014-6.69,2.123-9.904,3.571c-0.709,0.317-1.401,0.671-2.111,0.983
		c-0.505,0.224-1.19,0.309-1.495,0.832c-0.263,0.443-0.02,1.026,0.108,1.479c0.212,0.756,0.374,1.531,0.525,2.307
		c0.152,0.782,0.184,1.631,0.403,2.392c0.241,0.825,1.024,0.641,1.706,0.516c1.595-0.288,3.19-0.586,4.802-0.784
		c1.783-0.222,3.574-0.363,5.361-0.547c0.359-0.037,1.209,0.024,1.426-0.27c0.194-0.264,0.29-0.581,0.337-0.9
		c0.103-0.719,0.027-1.459,0.053-2.18c0.03-0.887,0.07-1.77,0.114-2.648c0.042-0.837,0.278-1.645,0.317-2.479
		c0.022-0.468,0.013-0.938,0.123-1.392c0.084-0.342,0.485-0.477,0.793-0.576c0.707-0.228,1.465-0.365,2.19-0.547
		c0.433-0.108,0.891-0.188,1.337-0.097c0.256,0.214,0.21,0.552,0.173,0.841c-0.111,0.814-0.079,1.655-0.128,2.473
		c-0.048,0.764,0.031,1.66-0.19,2.396c-0.205,0.693-0.106,1.433,0.834,1.245c0.158-0.031,0.273-0.204,0.412-0.275
		c0.157-0.08,0.324-0.134,0.48-0.207c0.395-0.184,0.782-0.373,1.171-0.563c0.697-0.339,1.398-0.683,2.104-1.013
		c1.359-0.633,2.744-1.207,4.12-1.799c1.347-0.58,2.691-1.237,4.094-1.674c0.396-0.123,0.795-0.242,1.166-0.426
		c0.417-0.211,0.559-0.316,0.563-0.783c0.014-0.835,0.046-1.671,0.091-2.503c0.089-1.651,0.297-3.308,0.354-4.962
		c0.014-0.372,0.018-0.755,0.124-1.115c0.118-0.393,0.403-0.459,0.772-0.578c0.729-0.232,1.553-0.396,2.316-0.422
		c0.339-0.013,0.988-0.013,1.063,0.391c0.07,0.377,0.07,0.763,0.057,1.14c-0.028,0.827-0.098,1.646-0.151,2.468
		c-0.061,0.896-0.241,1.784-0.251,2.68c-0.003,0.352,0.009,0.731,0.096,1.074c0.12,0.463,0.403,0.387,0.8,0.279
		c0.748-0.199,1.575-0.457,2.267-0.803c0.465-0.232,1.072-0.208,1.491-0.489c0.824-0.546-0.519-0.774-0.898-0.767
		c-0.605,0.015-1.193,0.015-1.799-0.045c-0.178-0.02-0.269,0.086-0.475,0.007c-0.127-0.048-0.262-0.112-0.35-0.216
		c-0.183-0.203-0.205-0.526-0.17-0.785c0.061-0.446,0.216-0.61,0.649-0.674c0.406-0.066,0.819-0.077,1.229-0.074
		c1.664,0.018,3.322,0.07,4.983,0.205c0.861,0.066,1.714,0.181,2.572,0.266c0.837,0.082,1.544-0.079,2.363-0.206
		c0.447-0.073,0.886-0.118,1.3-0.321c0.28-0.137,0.637-0.102,0.94-0.166c0.756-0.16,1.513-0.317,2.273-0.455
		c1.327-0.236,2.57-0.438,3.938-0.668c1.616-0.269,3.236-0.521,4.865-0.681c0.93-0.092,1.861-0.122,2.792-0.155
		c0.775-0.028,1.294-0.189,1.959,0.278c0.633,0.448,1.028-0.425,1.347-0.831c0.224-0.283,0.466-0.551,0.711-0.818
		c0.185-0.213,0.271-0.459,0.507-0.619c0.304-0.206,0.525-0.66,0.768-0.94c0.258-0.293,0.518-0.583,0.764-0.88
		c0.529-0.636,1.031-1.288,1.586-1.902c1.157-1.279,2.262-2.591,3.377-3.902c0.256-0.305,0.525-0.596,0.799-0.887
		c0.21-0.225,0.33-0.488,0.572-0.717c0.58-0.546,1.098-1.158,1.615-1.766c0.477-0.571,0.948-1.127,1.441-1.686
		c0.26-0.293,1.065-1.559,1.339-0.645c0.239,0.79,0.143,1.702,0.179,2.516c0.03,0.741,0.118,1.531-0.036,2.264
		c-0.153,0.728-0.703,1.244-1.082,1.857c-0.325,0.529-0.692,1.075-1.052,1.623c-0.805,1.23-1.771,2.305-2.59,3.549
		c-0.733,1.104-1.548,2.094-2.273,3.207c-0.479,0.727-0.989,1.432-1.467,2.161c-0.348,0.529-0.646,1.067-1.029,1.597
		c-0.5,0.688-0.872,1.482-1.266,2.235c-0.401,0.771-0.822,1.539-1.198,2.323c-0.372,0.781-0.724,1.58-1.062,2.377
		c-0.281,0.662-0.342,1.502-0.751,2.092c-0.188,0.271-0.167,0.831-0.243,1.161c-0.068,0.317-0.145,0.63-0.23,0.942
		c-0.209,0.767-0.301,1.562-0.326,2.352c-0.031,0.848-0.152,1.604-0.31,2.428c-0.133,0.703-0.073,1.484-0.097,2.2
		c-0.017,0.484-0.133,1.752,0.471,1.911c0.438,0.117,1.376,0.212,1.609-0.27c0.348-0.717,0.033-1.578,0.019-2.338
		c-0.019-0.791,0.004-1.59,0.07-2.379c0.069-0.801,0.227-1.589,0.328-2.382c0.096-0.765,0.181-1.534,0.506-2.239
		c0.351-0.758,0.456-1.604,0.759-2.382c0.14-0.354,0.283-0.709,0.421-1.067c0.107-0.284,0.117-0.61,0.296-0.86
		c0.114-0.162,0.1-0.406,0.193-0.587c0.094-0.182,0.204-0.357,0.302-0.533c0.206-0.369,0.314-0.779,0.509-1.146
		c0.184-0.346,0.458-0.633,0.635-0.983c0.167-0.33,0.315-0.667,0.502-0.985c1.482-2.512,3.141-4.896,4.802-7.285
		c0.553-0.795,1.099-1.6,1.643-2.396c0.321-0.479,0.695-0.896,1.023-1.359c0.062-0.086,0.094-0.34,0.204-0.377
		c0.029-0.011,0.215-0.287,0.209-0.313c-0.007-0.053,0.264-0.402,0.312-0.506c0.081-0.178,0.203-0.363,0.307-0.526
		c0.598-0.892,1.187-1.806,1.79-2.824c0.438-0.731,0.654-1.366,0.602-2.225c-0.053-0.82-0.021-1.632-0.051-2.452
		c0.206-0.175,0.225-0.492,0.413-0.691c0.217-0.221,0.343-0.494,0.579-0.707c0.059-0.059,0.391-0.494,0.386-0.527
		c-0.004-0.031,0.173-0.299,0.202-0.311c0.165-0.06,0.18-0.314,0.278-0.447c0.096-0.135,0.244-0.213,0.344-0.349
		c0.089-0.11,0.077-0.227,0.181-0.349c0.122-0.137,0.259-0.264,0.369-0.404c0.447-0.557,0.973-1.123,1.35-1.723
		c0.123-0.191,0.3-0.309,0.441-0.481c0.095-0.112,0.008-0.198,0.171-0.273c0.246-0.122,0.436-0.557,0.627-0.76
		c0.44-0.468,0.753-0.976,1.173-1.475c0.463-0.553,0.853-1.113,1.286-1.71c0.483-0.668,0.968-1.341,1.507-1.97
		c0.688-0.809,1.344-1.789,1.98-2.551c0.416-0.495,0.729-1.122,1.168-1.583c0.241-0.249,0.484-0.551,0.689-0.827
		c0.213-0.282,0.355-0.655,0.619-0.893c0.202-0.184,0.378-0.471,0.529-0.697c0.202-0.298,0.478-0.538,0.681-0.828
		c0.393-0.548,0.922-1.037,1.269-1.607c0.111-0.179,0.289-0.283,0.414-0.451c0.089-0.115,0.012-0.196,0.172-0.274
		c0.047-0.022,0.249-0.307,0.242-0.341c-0.008-0.048,0.287-0.473,0.344-0.553c0.202-0.29,0.499-0.499,0.692-0.811
		c0.329-0.532-0.207-1.313-0.832-1.253c-0.257,0.023-0.426,0.309-0.554,0.502c-0.192,0.283-0.425,0.532-0.657,0.782
		c-1.106,1.206-2.24,2.373-3.298,3.627c-0.893,1.055-1.769,2.097-2.721,3.064c-0.17,0.173-0.257,0.382-0.408,0.56
		c-0.108,0.125-0.213,0.089-0.276,0.272c-0.113,0.337-0.533,0.569-0.757,0.827c-0.228,0.262-0.395,0.566-0.619,0.825
		c-0.25,0.29-0.562,0.516-0.794,0.821c-0.918,1.206-1.978,2.298-2.92,3.479c-0.543,0.686-1.242,1.293-1.7,2.04
		c-0.183,0.295-0.483,0.516-0.689,0.801c-0.236,0.336-0.475,0.629-0.773,0.907c-0.319,0.298-0.521,0.669-0.821,0.983
		c-0.259,0.265-0.528,0.525-0.769,0.813c-0.448,0.545-0.873,1.035-1.352,1.556c-0.519,0.568-0.986,1.204-1.545,1.736
		c-0.524,0.499-1.078,0.378-1.746,0.279c-1.731-0.25-3.473,0.033-5.205-0.077c-0.593-0.038-1.308-0.165-1.883,0.047
		c-0.236,0.089-0.407,0.267-0.451,0.519c0.139,0.265,0.439,0.268,0.688,0.344c1.519,0.473,3.121,0.777,4.6,1.381
		c0.234,0.092,0.608,0.232,0.689,0.497c0.086,0.28-0.674,0.271-0.854,0.264c-0.809-0.026-1.614-0.157-2.421-0.201
		c-1.701-0.091-3.414-0.012-5.118-0.101c-0.268-0.014-0.6-0.01-0.763,0.246c-0.185,0.291,0.36,0.434,0.557,0.49
		c0.773,0.205,1.536,0.379,2.299,0.621c0.476,0.15,0.957,0.266,1.444,0.357c0.315,0.063,0.686,0.072,0.952,0.26
		c0.434,0.311,1.212,0.182,1.598,0.579c0.476,0.487-1.555,0.429-1.802,0.447c-0.863,0.077-1.71,0.176-2.577,0.19
		c-0.911,0.017-1.759,0.111-2.654,0.229c-0.688,0.085-1.442,0.064-2.073,0.384c0.05,0.509,1.344,0.587,1.704,0.656
		c0.771,0.149,1.547,0.274,2.315,0.438c0.722,0.155,1.393,0.447,2.103,0.618c0.23,0.056,0.453,0.14,0.415,0.423
		c-0.345,0.184-0.74,0.225-1.125,0.243c-1.668,0.078-3.356,0.124-5.021,0.273c-0.829,0.073-1.68,0.026-2.491,0.198
		c-0.826,0.178-1.668,0.201-2.505,0.317c-0.224,0.034-1.816,0.156-1.271,0.691c0.176,0.171,0.462,0.168,0.688,0.181
		c0.326,0.02,0.648,0.096,0.966,0.158c1.698,0.336,3.416,0.546,5.104,0.915c0.456,0.1,2.897,0.327,2.375,1.187
		c-0.282,0.465-0.843,0.754-1.378,0.705c-0.718-0.064-1.434-0.22-2.153-0.304c-0.385-0.041-0.742-0.201-1.142-0.248
		c-0.382-0.05-0.764-0.089-1.148-0.14c-0.699-0.096-1.399-0.194-2.101-0.285c-3.259-0.432-6.556-0.696-9.841-0.811
		c-7.218-0.258-14.455,0.291-21.544,1.686c-3.412,0.67-6.719,1.623-10.04,2.615c-0.591,0.176-2.296,1.357-2.766,0.619
		c-0.348-0.543-0.373-1.313-0.521-1.928c-0.173-0.725-0.406-1.438-0.571-2.177c-0.769-3.407-1.883-6.677-3.271-9.884
		c-0.704-1.627-1.438-3.24-2.241-4.821c-0.398-0.79-0.817-1.567-1.255-2.335c-0.265-0.454-0.548-0.882-0.824-1.311
		c-0.022-0.094-0.045-0.185-0.066-0.275c-0.07-0.074-0.138-0.14-0.207-0.206c-0.118-0.182-0.234-0.361-0.352-0.539
		c-0.239-0.36-0.48-0.717-0.726-1.071c-0.495-0.704-1.008-1.397-1.534-2.077c-0.967-1.243-1.991-2.585-3.163-3.639
		c-0.603-0.541-1.135-1.216-1.806-1.675c-0.648-0.442-1.458-0.335-2.193-0.5c-0.394-0.084-0.724-0.293-1.131-0.344
		c-0.384-0.049-0.748-0.09-1.121-0.201c-0.731-0.219-1.554-0.164-2.309-0.327c-1.731-0.372-3.505-0.578-5.245-0.897
		c-0.938-0.169-1.876-0.34-2.818-0.499c-0.422-0.069-1.941-0.645-1.895,0.161c0.022,0.361,0.312,0.733-0.027,0.995
		c-0.322,0.248-0.65,0.487-0.977,0.727c-0.458,0.339-1.316,0.832-1.526,1.396c-0.293,0.788,1.612-0.017,1.888-0.109
		c0.824-0.269,1.556-0.418,2.419-0.255c0.407,0.078,0.803,0.125,1.216,0.156c0.229,0.017,0.53,0.046,0.668,0.26
		c0.283,0.436-1.169,0.696-1.394,0.771c-1.69,0.545-3.387,1.048-5.07,1.621c-0.463,0.159-1.496,0.776-1.95,0.401
		c-0.009-0.182-0.017-0.789,0.205-0.859c0.207-0.064,0.266-0.801,0.345-1.001c0.282-0.724,0.698-1.356,0.918-2.113
		c0.228-0.769,0.635-1.459,0.878-2.22c1.071-3.37,2.093-6.831,2.373-10.374c0.254-3.251-0.248-6.528-1.347-9.587
		c-0.302-0.836-0.64-1.658-1.036-2.447c-0.288-0.57-0.871-1.195-0.9-1.851c-0.027-0.668,1.811-0.047,2.161,0.019
		c0.822,0.15,1.646,0.279,2.466,0.434c3.537,0.667,7.084,1.278,10.599,2.056c0.393,0.084,0.811,0.135,1.196,0.25
		c0.47,0.142,0.359,0.432,0.369,0.847c0.025,0.853,0,1.594-0.189,2.428c-0.193,0.848-0.259,1.687-0.486,2.53
		c-0.108,0.392-0.179,0.792-0.287,1.182c-0.099,0.35-0.294,0.652-0.389,1.004c-0.404,1.531-1.12,2.897-1.736,4.351
		c-0.342,0.814-0.81,1.56-1.272,2.307c-0.151,0.247-0.251,0.644-0.482,0.826c-0.212,0.17-0.225,0.463-0.444,0.655
		c-0.295,0.252-0.448,0.609-0.672,0.92c-0.239,0.334-0.49,0.658-0.746,0.981c-0.501,0.622-1.06,1.183-1.572,1.791
		c-0.231,0.278-0.48,0.602-0.386,0.989c0.329,0.192,0.704,0.289,1.082,0.352c0.791,0.133,1.586,0.239,2.376,0.377
		c3.526,0.625,7.069,1.123,10.596,1.73c7.339,1.263,14.697,2.404,22.031,3.693c7.369,1.295,14.758,2.481,22.143,3.689
		c0.706,0.115,1.396,0.189,2.089,0.372c0.343,0.092,0.715,0.174,1.015,0.206c1.751,0.198,3.498,0.503,5.245,0.791
		c3.54,0.586,7.082,1.199,10.629,1.775c3.381,0.552,6.77,1.087,10.149,1.638c0.5,0.081,1,0.163,1.501,0.242
		c0.369,0.058,0.875,0.013,1.216,0.177c0.25,0.118,0.558,0.014,0.776,0.166c0.271,0.184,0.751,0.182,1.065,0.24
		c0.689,0.137,1.342,0.475,1.849-0.164c0.207-0.254,0.374-0.533,0.596-0.777c0.243-0.27,0.526-0.52,0.689-0.848
		c0.251-0.507-0.884-1.259-1.154-1.638c-0.335-0.462-0.769-0.859-1.151-1.306c-0.811-0.955-1.685-1.824-2.54-2.777
		c-1.17-1.305-2.339-2.614-3.519-3.913c-0.601-0.662-1.184-1.347-1.828-1.963c-0.217-0.208-0.313-0.471-0.533-0.674
		c-0.198-0.182-0.284-0.561-0.077-0.769c0.575-0.577,1.402,0.689,1.699,1.059c0.465,0.586,1.046,1.076,1.536,1.645
		c0.289,0.34,0.569,0.682,0.879,1.002c0.225,0.235,0.498,0.466,0.634,0.768l0.253,0.203c0.105,0.124,0.215,0.243,0.324,0.364
		c0.195,0.21,0.362,0.476,0.592,0.651c0.433,0.327,0.479-0.293,0.51-0.609c0.044-0.398,0.021-0.805,0-1.208
		c-0.037-0.78-0.028-1.571-0.134-2.349c-0.043-0.342-0.085-0.869,0.385-0.824c0.408,0.036,0.807,0.13,1.203,0.245
		c0.711,0.205,1.381,0.589,2.097,0.762c0.766,0.185,1.447,0.538,2.198,0.756c0.596,0.17,1.014,0.375,1.439,0.834
		c0.48,0.514,0.999,1.03,1.418,1.593c0.306,0.413,0.599,0.869,1.003,1.195c0.561,0.446,0.86-0.26,1.178-0.661
		c0.395-0.506,0.926-0.89,0.429-1.501c-0.283-0.345-0.604-0.666-0.923-0.976c-0.253-0.244-0.406-0.486-0.615-0.747
		c-0.443-0.562-1.032-1.062-1.529-1.584c-0.96-1.003-1.891-2.054-2.817-3.05c-1.225-1.311-2.412-2.656-3.626-3.981
		c-0.623-0.679-1.247-1.355-1.858-2.049c-0.525-0.597-1.115-1.126-1.642-1.718c-0.189-0.213-0.602-0.767-0.189-0.917
		c0.366-0.129,0.756-0.059,1.132-0.054c0.825,0.007,1.645,0.083,2.462,0.206c1.718,0.252,3.403,0.683,5.053,1.224
		c1.486,0.49,2.904,1.066,4.359,1.645c1.468,0.585,2.897,1.363,4.283,2.133c0.654,0.363,1.456,0.962,1.805,1.642
		c0.142,0.275,0.432,0.375,0.565,0.637c0.122,0.237,0.313,0.466,0.615,0.385c0.288-0.079,0.499-0.369,0.633-0.619
		c0.095-0.176,0.3-0.26,0.406-0.459c0.318-0.597-0.278-1.026-0.675-1.404c-0.269-0.255-0.395-0.536-0.652-0.8
		c-0.274-0.274-0.564-0.538-0.839-0.816c-0.212-0.219-0.306-0.434-0.56-0.643c-0.264-0.219-0.416-0.543-0.649-0.79
		c-2.063-2.156-3.985-4.389-5.999-6.608c-0.533-0.584-1.09-1.143-1.645-1.705c-0.425-0.428-0.718-1.015-1.213-1.392
		c-0.335-0.252-0.525-0.617-0.8-0.925c-0.298-0.324-0.603-0.64-0.903-0.962c-0.609-0.661-1.218-1.327-1.823-1.992
		c-2.533-2.777-5.039-5.579-7.564-8.365c-4.421-4.874-8.868-9.72-13.278-14.6c-1-1.105-1.975-2.187-2.99-3.303
		c-0.938-1.029-1.783-2.086-2.8-3.066c-0.293-0.283-0.44-0.626-0.758-0.883c-0.219-0.175-0.285-0.4-0.479-0.565
		c-0.273-0.225-0.463-0.432-0.672-0.722c-0.188-0.257-0.487-0.419-0.659-0.683c-0.232-0.349-0.558-0.64-0.857-0.925
		c-0.259-0.245-0.403-0.551-0.645-0.791c-0.485-0.471-0.943-0.965-1.394-1.471c-0.539-0.604-1.081-1.207-1.617-1.818
		c-0.258-0.288-0.509-0.576-0.766-0.862c-0.146-0.163-0.644-0.494-0.676-0.704c-0.04-0.281-0.594-0.672-0.783-0.88
		c-0.251-0.263-0.5-0.529-0.748-0.802c-0.537-0.593-1.054-1.207-1.601-1.795c-0.431-0.462-0.964-0.904-1.255-1.473
		c-0.308-0.593,0.306-0.934,0.774-0.552c0.556,0.454,1.029,1.079,1.518,1.604c0.523,0.566,1.043,1.136,1.571,1.699
		c0.31,0.326,0.449,0.626,0.917,0.517c0.366-0.083,0.556-0.083,0.886,0.078c0.33,0.162,0.741,0.206,1.088,0.331
		c0.396,0.142,0.793,0.297,1.184,0.461c0.716,0.296,1.475,0.78,2.227,0.933c0.328,0.067,0.676,0.303,0.998,0.426
		c0.401,0.155,0.803,0.307,1.205,0.467c1.618,0.65,3.161,1.468,4.785,2.116c0.84,0.333,1.646,0.735,2.455,1.132
		c0.354,0.171,1.166,0.348,1.125,0.865c-1.16-0.008-2.351-0.505-3.449-0.845c-1.037-0.32-2.071-0.655-3.117-0.943
		c-2.272-0.621-4.482-1.481-6.784-1.999c-0.076,0.304,0.152,0.542,0.358,0.726c0.271,0.245,0.492,0.522,0.743,0.789
		c0.537,0.57,1.099,0.722,1.848,0.936c1.571,0.452,3.136,0.912,4.7,1.387c1.51,0.458,3.016,0.935,4.526,1.388
		c0.717,0.217,1.46,0.357,2.161,0.607c0.392,0.14,0.777,0.298,1.169,0.44c0.269,0.093,0.591,0.07,0.81,0.228
		c0.27,0.191,0.576,0.065,0.817,0.364c0.156,0.201,0.276,0.61,0.065,0.818c-0.19,0.187-0.514,0.092-0.749,0.094
		c-0.399,0.006-0.798-0.04-1.194-0.083c-0.292-0.033-2.184-0.188-1.398,0.402c0.505,0.377,1.201,0.643,1.78,0.894
		c1.058,0.451,2.976,0.938,3.321,2.21c0.111,0.406,0.23,0.859-0.284,0.964c-0.332,0.068-0.676-0.012-0.994-0.108
		c-0.717-0.218-1.411-0.267-2.156-0.359c-0.438-0.055-0.863-0.041-1.302-0.066c-0.188-0.01-0.479-0.072-0.616,0.105
		c-0.346,0.458,0.369,0.792,0.683,0.925c0.31,0.13,0.563,0.347,0.871,0.49c0.327,0.149,0.657,0.29,0.984,0.442
		c0.632,0.293,1.294,0.622,1.866,1.02c0.531,0.37,1.341,0.687,1.668,1.261c0.207,0.362,0.331,1.499-0.369,1.408
		c-0.364-0.05-0.716-0.256-1.061-0.376c-0.339-0.119-0.694-0.048-1.041-0.111c-0.814-0.15-1.585-0.444-2.41-0.551
		c-0.106,0.337,0.505,0.833,0.7,1.063c0.323,0.384,0.672,0.756,1.085,1.044c0.792,0.556,1.785,0.855,2.527,1.461
		c0.385,0.311,0.432,0.745,0.44,1.206c0.006,0.483,0.081,0.812,0.406,1.181c0.219,0.254,0.445,0.611,0.725,0.797
		c0.516,0.345,0.561-0.524,0.607-0.859c0.314-2.206,0.337-4.499,0.163-6.719c-0.161-2.065-0.589-4.256-1.416-6.167
		c-0.169-0.386-0.987-1.647-0.058-1.595c0.469,0.027,1.216,0.376,1.419-0.255c0.434-1.335-1.502-1.436-2.332-1.825
		c-0.706-0.332-0.971-0.612-0.713-1.416c0.256-0.797,0.48-1.592,0.654-2.415c0.338-1.623,0.512-3.28,0.569-4.936
		c0.112-3.144-0.267-6.295-1.194-9.299c-0.177-0.571-0.762-1.541-0.351-2.101c0.677-0.107,1.301,0.364,1.957,0.441
		c0.823,0.096,0.784-0.789,0.297-1.186c-0.482-0.388-1.122-0.59-1.703-0.768c-3.304-1.006-6.542-2.223-9.808-3.344
		c-1.708-0.586-3.42-1.169-5.129-1.756c-1.673-0.57-3.342-1.316-5.055-1.752c-0.791-0.202-1.553-0.567-2.334-0.817
		c-0.617-0.198-1.231-0.409-1.846-0.611c-0.485-0.16-1.175-0.339-1.487-0.782c-0.327-0.458-0.152-1.424-0.155-1.953
		C411.862,197.068,412.332,193.425,412.43,189.778 M434.178,332.045c-1.61-0.191-3.229,0.111-4.832,0.222
		c-0.798,0.055-1.602,0.062-2.393,0.169c-0.734,0.104-1.457,0.271-2.195,0.341c-0.751,0.074-1.509,0.103-2.258,0.216
		c-0.695,0.107-1.388,0.26-2.091,0.316c-0.649,0.053-1.374,0.018-2.001,0.217c-0.416,0.133-1.34,0.057-1.544,0.521
		c-0.221,0.514,0.492,0.57,0.815,0.636c0.651,0.128,0.716,0.464,0.932,1.037c0.131,0.35,0.417,0.569,0.629,0.866
		c0.112,0.154,0.142,0.345,0.277,0.479c0.454,0.478,0.856,1.045,1.329,1.504c0.394,0.384,0.672,0.606,1.261,0.522
		c0.505-0.076,0.827-0.159,1.322-0.206c0.651-0.062,0.999-0.329,1.459-0.722c0.219-0.186,0.498-0.49,0.617-0.754
		c0.079-0.175-0.049-0.355,0.18-0.297c0.01,0.004-0.164-0.441-0.18-0.504c-0.045-0.201-0.049-0.404-0.007-0.605
		c0.064-0.332,0.255-0.641,0.513-0.865c0.272-0.242,0.674-0.413,1.043-0.319c0.145,0.041,0.637,0.265,0.691,0.399
		c0.167,0.418,0.298,0.843,0.236,1.297c-0.024,0.184-0.144,0.32-0.236,0.471c-0.084,0.139-0.007,0.276-0.04,0.424
		c-0.041,0.194-0.174,0.33-0.123,0.537c0.033,0.124,0.098,0.235,0.123,0.361c0.406,0.197,0.881,0.136,1.308,0.077
		c1.02-0.138,2.058-0.275,3.085-0.3c0.536-0.008,1.822,0.115,1.995-0.582c0.244-0.994,0.053-2.104,0.146-3.116
		C434.3,333.766,434.655,332.562,434.178,332.045 M436.519,371.414c0.083-0.418-0.232-0.508-0.564-0.574
		c-0.441-0.084-0.834-0.408-1.294-0.391c-0.338-0.01-0.227,0.342-0.055,0.49c0.147,0.123,0.341,0.184,0.521,0.24
		C435.526,371.306,436.129,371.752,436.519,371.414 M348.694,370.037c0.166,0.512,0.892,0.41,1.307,0.482
		c0.633,0.109,1.259,0.215,1.861,0.453c1.243,0.488,2.535,0.871,3.821,1.219c2.902,0.795,5.86,1.232,8.867,1.361
		c1.805,0.078,3.594-0.061,5.367-0.406c0.912-0.184,1.798-0.408,2.66-0.756c0.359-0.143,0.685-0.337,1.031-0.495
		c0.333-0.151,0.699-0.216,1.007-0.413c0.332-0.21,0.628-0.477,0.958-0.693c0.229-0.146,0.512-0.293,0.659-0.533
		c0.151-0.244-0.025-0.53-0.265-0.637c-0.325-0.141-0.645,0.036-0.944,0.153c-1.639,0.634-3.302,1.118-5.038,1.411
		c-3.583,0.602-7.185,0.66-10.795,0.266c-1.758-0.193-3.502-0.467-5.25-0.736c-0.899-0.139-1.799-0.276-2.702-0.4
		C350.396,370.196,349.553,369.951,348.694,370.037 M470.379,369.621c-0.214-0.222-0.612-0.258-0.896-0.343
		c-0.374-0.108-0.749-0.237-1.146-0.26c-0.349-0.022-0.7,0.062-1.011,0.228c-0.202,0.11-0.527,0.455-0.17,0.567
		c0.625,0.19,1.368,0.312,2.016,0.374C469.514,370.223,470.322,370.018,470.379,369.621 M346.492,366.594
		c0.063,0.502,1.083,0.494,1.433,0.535c0.816,0.09,1.634,0.209,2.441,0.348c1.6,0.27,3.108,0.896,4.677,1.304
		c3.02,0.785,6.022,1.341,9.151,1.341c1.556,0,3.14-0.056,4.639-0.502c0.758-0.223,1.647-0.341,2.354-0.684
		c0.686-0.335,1.412-0.581,2.106-0.904c0.471-0.217,1.354-0.67,0.867-1.31c-0.502-0.663-1.28-0.271-1.898-0.043
		c-1.627,0.588-3.263,1.043-4.984,1.266c-1.548,0.205-3.123,0.421-4.689,0.38c-1.804-0.044-3.616-0.195-5.407-0.41
		c-1.778-0.215-3.559-0.393-5.32-0.722C350.092,366.865,348.301,366.486,346.492,366.594 M303.886,365.631
		c0.261,0,0.612,0.146,0.893,0.168c0.354,0.027,0.707,0.044,1.063,0.064c0.555,0.03,1.433-0.055,1.905,0.282
		c0.229,0.163,0.704,0.12,0.975,0.149c0.357,0.039,0.711,0.105,1.064,0.164c0.709,0.115,1.417,0.252,2.124,0.385
		c2.897,0.562,5.797,1.096,8.71,1.605c2.946,0.52,5.856,0.957,8.849,1.116c2.966,0.156,5.767-0.249,8.669-0.817
		c0.701-0.141,1.459-0.317,1.836-0.992c0.244-0.43,0.279-1.144-0.175-1.461c-0.659-0.465-1.391-0.309-2.104-0.088
		c-0.761,0.231-1.534,0.42-2.312,0.586c-3.347,0.709-6.751,0.679-10.15,0.447c-3.611-0.244-7.2-0.779-10.798-1.162
		c-1.784-0.189-3.569-0.373-5.359-0.473c-0.937-0.049-1.872-0.083-2.803-0.095c-0.448-0.009-0.895-0.015-1.341-0.017
		C304.669,365.492,304.024,365.357,303.886,365.631 M431.975,369.828c-0.057-0.623-0.74-0.709-1.227-0.83
		c-0.312-0.074-0.603-0.244-0.904-0.353c-0.396-0.146-0.832-0.265-1.196-0.481c-0.362-0.224-0.753-0.305-1.133-0.49
		c-0.378-0.186-0.755-0.385-1.125-0.592c-0.727-0.4-1.472-0.791-2.166-1.24c-1.426-0.926-2.997-1.67-4.497-2.475
		c-1.494-0.801-2.958-1.629-4.394-2.525c-0.481-0.303-1.167-0.774-1.755-0.788c-0.605-0.019-1.092,0.271-1.181,0.905
		c-0.163,1.223,1.909,1.658,2.7,2.082c1.435,0.769,2.879,1.449,4.361,2.125c0.816,0.373,1.631,0.739,2.456,1.078
		c0.295,0.123,0.645,0.146,0.881,0.354c0.13,0.116,0.286,0.067,0.438,0.135c0.107,0.044,0.167,0.16,0.275,0.205
		c1.327,0.578,2.711,1.085,4.064,1.603c0.757,0.285,1.516,0.631,2.296,0.847c0.376,0.104,0.753,0.207,1.11,0.366
		C431.293,369.895,431.655,370.035,431.975,369.828 M445.67,371.345c0.199-0.701-2.211-1.222-2.646-1.38
		c-1.277-0.467-2.505-1.077-3.733-1.657c-1.268-0.601-2.543-1.19-3.799-1.821c-1.169-0.585-2.286-1.279-3.478-1.82
		c-1.216-0.549-2.309-1.299-3.48-1.926c-1.157-0.617-2.316-1.232-3.435-1.919c-0.556-0.342-1.102-0.696-1.659-1.038
		c-0.483-0.301-0.786-0.805-1.258-1.123c-0.506-0.347-0.888-0.752-1.324-1.175c-0.421-0.405-0.867-0.489-1.409-0.663
		c-0.706-0.227-1.397-0.455-2.131-0.177c-0.544,0.207-0.795,0.71-0.659,1.274c0.181,0.72,0.553,1.209,1.136,1.656
		c0.48,0.363,0.919,0.717,1.446,1.032c1.183,0.702,2.424,1.302,3.546,2.099c1.248,0.895,2.69,1.514,4.104,2.117
		c0.84,0.358,1.682,0.715,2.509,1.114c0.611,0.299,1.32,0.464,1.907,0.808c0.638,0.371,1.368,0.5,2.047,0.812
		c0.688,0.319,1.444,0.528,2.157,0.79c1.695,0.633,3.416,1.186,5.132,1.764c0.874,0.293,1.755,0.576,2.629,0.873
		C444.038,371.246,444.853,371.481,445.67,371.345 M407.747,356.479c-1.54,0.412-0.28,2.421,0.985,2.121
		c0.583-0.139,1.106-0.744,0.832-1.368C409.3,356.631,408.325,356.322,407.747,356.479 M464.871,368.107
		c-0.727-0.382-1.523-0.605-2.299-0.882c-0.628-0.228-1.248-0.479-1.883-0.692c-1.512-0.509-2.952-1.178-4.413-1.815
		c-1.354-0.593-2.731-1.13-4.03-1.847c-1.253-0.694-2.522-1.279-3.743-2.039c-2.455-1.521-4.921-2.881-7.276-4.449
		c-0.348-0.232-0.731-0.411-1.061-0.661c-0.286-0.216-0.505-0.507-0.759-0.761c-0.541-0.537-1.185-0.967-1.825-1.383
		c-1.281-0.838-2.642-1.761-4.229-1.779c-0.442-0.004-0.892,0.063-1.277,0.275c-0.292,0.163-0.559,0.385-0.893,0.457
		c-0.673,0.147-1.452-0.285-2.031-0.576c-0.709-0.352-1.489-0.57-2.277-0.627c-0.886-0.065-1.646,0.18-2.471,0.469
		c-0.388,0.137-1.398,0.377-1.595,0.783c-0.215,0.437-0.462,0.808-0.517,1.301c-0.077,0.687-0.077,1.158,0.253,1.771
		c0.278,0.518,0.563,1.002,0.979,1.415c0.173,0.177,0.353,0.347,0.535,0.511c0.11,0.105,0.26,0.09,0.351,0.227
		c0.151,0.234,0.396,0.279,0.544,0.516c0.117,0.192,0.433,0.229,0.596,0.414c0.229,0.258,0.644,0.296,0.906,0.527
		c0.263,0.232,0.493,0.404,0.769,0.59c0.11,0.072,0.167,0.202,0.274,0.273c0.106,0.069,0.24,0.072,0.345,0.139
		c0.506,0.306,1.003,0.574,1.492,0.867c1.531,0.922,3.16,1.701,4.731,2.557c1.584,0.864,3.18,1.686,4.809,2.458
		c1.454,0.69,2.927,1.345,4.392,2.017c0.312,0.143,0.614,0.307,0.944,0.412c0.286,0.09,0.479,0.252,0.769,0.342
		c0.642,0.199,1.287,0.695,1.98,0.537c0.262-0.061,0.486-0.33,0.293-0.588c-0.179-0.246-0.533-0.363-0.802-0.478
		c-0.67-0.295-1.369-0.528-1.993-0.916c-0.699-0.435-1.481-0.729-2.164-1.187c-0.505-0.339-1.112-0.517-1.581-0.892
		c-0.329-0.271-0.667-0.388-1.03-0.587c-0.194-0.107-0.581-0.277-0.722-0.447c-0.193-0.234-0.628-0.357-0.881-0.564
		c-0.249-0.202-0.646-0.217-0.847-0.471c-0.148-0.187-0.396-0.158-0.548-0.344c-0.098-0.121-0.188-0.138-0.326-0.189
		c-0.311-0.104-0.521-0.41-0.821-0.537c-0.154-0.068-0.32-0.114-0.468-0.201c-0.108-0.063-0.005-0.141-0.175-0.174
		c-0.258-0.059-0.579-0.312-0.785-0.479c-0.313-0.255-0.749-0.439-1.098-0.664c-0.34-0.218-0.68-0.441-1.012-0.669
		c-0.239-0.169-0.419-0.39-0.646-0.562c-0.253-0.188-0.513-0.332-0.755-0.565c-0.165-0.16-1.455-1.185-1.104-1.429
		c0.307-0.035,0.535,0.18,0.775,0.338c0.309,0.209,0.68,0.318,1.012,0.486c3.219,1.632,6.323,3.472,9.557,5.072
		c0.85,0.42,1.702,0.834,2.562,1.234c0.672,0.314,1.361,0.863,2.079,1.04c0.714,0.176,1.426,0.612,2.127,0.881
		c0.824,0.323,1.648,0.636,2.474,0.951c1.573,0.596,3.136,1.171,4.737,1.694c0.749,0.246,1.478,0.496,2.246,0.692
		c0.585,0.147,1.112,0.502,1.729,0.283c0.936-0.331-0.466-0.833-0.722-0.938c-0.615-0.25-1.24-0.479-1.87-0.675
		c-1.553-0.485-3.05-1.256-4.541-1.897c-1.448-0.622-2.845-1.316-4.263-2.006c-0.805-0.394-1.581-0.83-2.363-1.264
		c-0.711-0.396-1.463-0.71-2.168-1.119c-1.184-0.688-2.326-1.33-3.44-2.111c-0.71-0.502-1.456-0.938-2.16-1.439
		c-0.266-0.189-1.31-0.801-1.163-1.223c1.294,0.429,2.475,1.164,3.686,1.775c1.212,0.611,2.418,1.233,3.629,1.848
		c2.469,1.248,4.975,2.422,7.534,3.476c2.548,1.046,5.178,1.923,7.8,2.778c1.294,0.421,2.604,0.892,3.938,1.163
		c0.451,0.089,0.908,0.386,1.373,0.274C464.352,368.756,464.91,368.461,464.871,368.107 M487.518,368.662
		c-0.016-0.375-1.138-0.52-1.403-0.593c-0.783-0.217-1.583-0.382-2.372-0.584c-1.648-0.421-3.301-0.827-4.919-1.368
		c-0.858-0.287-1.703-0.637-2.576-0.883c-0.712-0.201-1.351-0.514-2.06-0.729c-3.415-1.036-6.626-2.479-9.844-4.01
		c-1.63-0.773-3.257-1.559-4.849-2.412c-0.436-0.229-0.869-0.472-1.298-0.711c-0.108-0.062-0.007-0.137-0.172-0.18
		c-0.157-0.037-0.285-0.131-0.413-0.224c-0.536-0.399-1.277-0.603-1.864-0.942c-0.369-0.215-0.664-0.505-1.058-0.688
		c-0.379-0.172-0.734-0.391-1.095-0.603c-0.717-0.413-1.422-0.838-2.105-1.312c-1.415-0.982-2.746-2.077-4.16-3.066
		c-0.336-0.23-0.676-0.515-1.064-0.646c-0.246-0.086-0.359-0.325-0.618-0.411c-0.645-0.224-1.445-0.649-1.998-1.052
		c-1.071-0.781-2.885-0.946-4.03-0.211c-1.178,0.756-1.103,2.299-0.324,3.346c0.4,0.535,0.92,0.916,1.477,1.277
		c0.29,0.189,0.51,0.428,0.771,0.651c0.222,0.187,0.521,0.306,0.757,0.481c0.045,0.066,0.091,0.138,0.137,0.207
		c0.093,0.045,0.183,0.093,0.275,0.138c0.17,0.114,0.345,0.231,0.52,0.343c0.352,0.227,0.714,0.436,1.085,0.633
		c0.749,0.4,1.526,0.734,2.271,1.149c0.801,0.442,1.602,0.856,2.423,1.259c0.706,0.348,1.329,0.828,2.04,1.178
		c0.725,0.354,1.514,0.648,2.193,1.082c0.317,0.201,0.573,0.379,0.94,0.523c0.364,0.15,0.709,0.345,1.053,0.531
		c1.601,0.871,3.292,1.63,4.97,2.332c3.129,1.306,6.367,2.369,9.603,3.383c0.851,0.271,1.715,0.498,2.568,0.757
		c0.385,0.114,0.778,0.22,1.181,0.256c0.146,0.013,0.928,0.046,0.538-0.261c-0.192-0.15-0.58-0.235-0.803-0.314
		c-0.397-0.144-0.809-0.246-1.216-0.359c-0.829-0.229-1.624-0.543-2.422-0.865c-1.674-0.676-3.377-1.262-5.04-1.973
		c-1.633-0.693-3.227-1.471-4.833-2.226c-1.34-0.622-2.675-1.321-4.019-1.978c-0.436-0.2-0.803-0.477-1.216-0.704
		c-0.181-0.101-0.719-0.202-0.788-0.409c-0.057-0.165-0.619-0.359-0.775-0.449c-0.334-0.193-0.635-0.4-0.915-0.665
		c-0.135-0.126-0.335-0.151-0.435-0.301c-0.056-0.083-0.073-0.203-0.142-0.274c-0.128-0.142,0.746,0.078,0.835,0.106
		c0.777,0.278,1.494,0.712,2.231,1.075c1.551,0.771,3.102,1.505,4.694,2.178c1.619,0.682,3.225,1.396,4.821,2.121
		c0.396,0.182,0.81,0.287,1.199,0.455c0.261,0.117,0.521,0.296,0.808,0.33c0.308,0.035,0.632,0.271,0.925,0.376
		c0.398,0.146,0.783,0.323,1.177,0.476c3.236,1.26,6.628,2.258,9.98,3.153c1.652,0.442,3.362,0.722,5.018,1.05
		c0.922,0.184,1.852,0.324,2.771,0.523C486.19,368.679,487.51,369.08,487.518,368.662 M418.622,346.773
		c-1.274,0.094-1.826,1.069-1.265,2.223c0.516,1.053,1.661,1.992,2.912,1.719c1.269-0.27,1.545-1.539,1.063-2.608
		c-0.229-0.51-0.512-0.79-1.036-0.963c-0.362-0.122-0.727-0.243-1.096-0.343C418.956,346.737,418.831,346.761,418.622,346.773
		 M413.458,342.438c-0.764,0.023-1.468,0.37-2.225,0.445c-0.37,0.033-1.096-0.014-1.202,0.467c-0.122,0.55,0.665,0.699,1.02,0.876
		c0.545,0.276,1.115,0.555,1.595,0.942c0.83,0.676,2.242,0.401,2.327-0.803c0.021-0.297-0.061-0.615-0.155-0.89
		c-0.063-0.179-0.485-0.579-0.466-0.692C414.418,342.375,413.649,342.433,413.458,342.438 M443.329,342.231
		c-1.795,0.504-0.485,3.521,1.103,2.548c0.305-0.195,0.484-0.311,0.598-0.691c0.099-0.338,0.096-0.705,0.006-1.041
		C444.816,342.22,444.113,342.01,443.329,342.231 M416.142,342.022c-0.082,0.354,0.25,0.63,0.416,0.896
		c0.17,0.27,0.297,0.567,0.481,0.826c0.323,0.455,0.898,1.194,1.449,1.357c1.035,0.316,2.337-0.063,2.416-1.287
		c0.038-0.553-0.092-1.121-0.27-1.645c-0.073-0.217-0.157-0.43-0.258-0.633c-0.138-0.287-0.372-0.264-0.675-0.233
		c-0.719,0.073-1.428,0.222-2.156,0.286C417.189,341.621,416.295,341.617,416.142,342.022 M433.695,340.234
		c-0.343-0.252-0.803-0.126-1.191-0.085c-0.389,0.044-0.785,0.037-1.177,0.046c-0.768,0.016-1.539,0.066-2.301,0.018
		c-0.34-0.023-0.737-0.062-1.044,0.115c-0.339,0.193-0.204,0.662-0.126,0.986c0.15,0.639,0.682,1.123,1.212,1.471
		c0.33,0.217,0.657,0.291,1.036,0.373c0.364,0.077,0.528,0.281,0.837,0.452c0.644,0.347,1.48,0.565,2.198,0.701
		c0.868,0.161,0.655-1.267,0.682-1.8C433.862,341.795,433.981,340.912,433.695,340.234 M498.118,366.733
		c-0.211-0.489-0.866-0.514-1.309-0.618c-0.643-0.156-1.271-0.406-1.929-0.482c-0.651-0.076-1.294-0.404-1.914-0.622
		c-0.635-0.218-1.263-0.454-1.891-0.685c-1.632-0.609-3.288-1.137-4.918-1.744c-1.54-0.574-2.951-1.373-4.454-2.023
		c-1.58-0.688-3.222-1.352-4.717-2.217c-1.481-0.858-2.973-1.665-4.503-2.434c-1.605-0.804-3.188-1.629-4.758-2.496
		c-1.399-0.774-2.687-1.633-4.003-2.541c-0.717-0.494-1.468-0.932-2.171-1.442c-0.197-0.146-0.538-0.595-0.773-0.626
		c-0.061-0.008-0.398-0.262-0.413-0.309c-0.04-0.119-0.276-0.16-0.372-0.248c-0.13-0.117-0.25-0.24-0.381-0.356
		c-0.263-0.228-0.52-0.431-0.761-0.679s-0.518-0.463-0.782-0.682c-0.163-0.136-0.529-0.301-0.631-0.462
		c-0.149-0.226-0.398-0.306-0.593-0.507c-0.264-0.266-0.499-0.559-0.736-0.852c-0.492-0.604-1.048-1.192-1.471-1.85
		c-0.401-0.621-0.699-1.395-0.421-2.127c0.198-0.51,0.644-0.688,1.098-0.906c0.688-0.334,0.575-1.123,0.677-1.759
		c0.105-0.657,0.558-1.228,1.146-1.543c0.808-0.44,1.607-0.157,2.462-0.305c0.711-0.126,1.208-0.433,1.732-0.897
		c0.615-0.541,0.587-1.414,0.253-2.092c-0.29-0.581-0.772-1.389-1.395-1.666c-0.103-0.05-0.145-0.193-0.308-0.24
		c-0.161-0.05-0.063-0.113-0.174-0.176c-0.242-0.139-0.561-0.24-0.826-0.343c-0.646-0.252-1.321-0.222-2.006-0.2
		c-0.461,0.018-0.936,0.012-1.386,0.143c-0.358,0.103-0.714,0.256-1.094,0.271c-0.774,0.025-1.021-0.494-1.294-1.102
		c-0.579-1.273-1.938-1.357-3.03-0.629c-0.281,0.191-0.63,0.435-0.879,0.657c-0.211,0.192-0.538,0.449-0.639,0.722
		c-0.087,0.242-0.417,0.424-0.582,0.627c-0.201,0.252-0.389,0.496-0.635,0.707c-0.236,0.207-0.343,0.642,0.136,0.564
		c0.279-0.047,0.463-0.292,0.674-0.455c0.598-0.459,1.184-0.951,1.859-1.306c0.579-0.31,1.414-0.548,1.737,0.212
		c0.233,0.557,0.313,1.076,0.987,1.266c0.693,0.195,1.616,0.002,2.308-0.121c0.712-0.127,1.416-0.313,2.142-0.354
		c0.701-0.038,1.724-0.079,2.312,0.362c0.404,0.304,0.913,0.983,0.467,1.463c-0.421,0.445-1.43,0.527-2.001,0.593
		c-0.701,0.085-1.476,0.085-2.138,0.36c-0.628,0.261-1.361,0.808-1.711,1.396c-0.367,0.608-0.45,1.429-0.869,1.981
		c-0.455,0.594-1.31,0.563-1.95,0.824c-0.316,0.127-0.658,0.188-0.957,0.358c-0.298,0.168-0.567,0.399-0.881,0.539
		c-0.077,0.032-0.266,0.302-0.347,0.373c-0.128,0.116-0.251,0.237-0.342,0.382c-0.144,0.24-0.239,0.507-0.306,0.778
		c-0.16,0.632-0.191,1.299-0.15,1.946c0.042,0.705,0.21,1.388,0.434,2.054c0.236,0.704,0.772,1.302,1.237,1.866
		c0.928,1.133,2.161,2.049,3.289,2.979c0.628,0.515,1.23,1.136,1.897,1.599c0.325,0.224,0.726,0.357,1.068,0.561
		c0.369,0.218,0.73,0.451,1.091,0.683c0.662,0.425,1.292,0.91,1.971,1.3c0.356,0.205,0.706,0.424,1.073,0.608
		c0.332,0.169,0.688,0.224,1.034,0.354c0.394,0.146,0.649,0.472,0.942,0.756c0.11,0.107,0.227,0.231,0.392,0.248
		c0.197,0.02,0.192,0.15,0.344,0.238c0.244,0.135,0.508,0.219,0.758,0.342c0.372,0.18,0.732,0.387,1.092,0.588
		c0.761,0.431,1.587,0.709,2.333,1.154c0.337,0.203,0.669,0.424,1.023,0.592c0.28,0.138,0.555,0.156,0.834,0.322
		c0.749,0.445,1.551,0.764,2.329,1.152c0.793,0.398,1.587,0.791,2.39,1.164c0.458,0.208,0.922,0.43,1.398,0.604
		c0.28,0.096,0.524,0.281,0.813,0.319c0.305,0.038,0.652,0.328,0.938,0.452c0.298,0.131,0.593,0.283,0.904,0.386
		c0.349,0.117,0.679,0.298,1.029,0.409c0.239,0.079,0.773,0.01,0.555-0.35c-0.111-0.186-0.354-0.226-0.543-0.287
		c-0.369-0.125-0.714-0.328-1.067-0.486c-0.686-0.307-1.557-0.38-2.133-0.871c-0.229-0.193-0.495-0.533-0.813-0.572
		c-0.352-0.051-0.713-0.285-1.033-0.431c-1.509-0.694-2.941-1.569-4.405-2.354c-0.633-0.34-1.177-0.762-1.821-1.125
		c-0.726-0.412-1.416-0.879-2.098-1.355c-1.461-1.014-2.884-2.072-4.361-3.064c-0.684-0.455-1.443-0.894-2.045-1.459
		c-0.222-0.203-0.395-0.453-0.646-0.629c-0.187-0.127-0.436-0.273-0.484-0.513c-0.136-0.69,1.317,0.288,1.518,0.444
		c0.242,0.189,0.529,0.244,0.783,0.406c0.258,0.152,0.495,0.388,0.76,0.549c3.07,1.896,6.34,3.537,9.508,5.277
		c2.771,1.523,5.615,2.918,8.525,4.014c1.671,0.63,3.297,1.33,4.996,1.879c1.733,0.557,3.453,1.146,5.185,1.707
		c0.851,0.273,1.669,0.63,2.549,0.816c0.821,0.176,1.633,0.408,2.446,0.625c0.885,0.242,1.769,0.479,2.664,0.672
		C497.139,366.826,498.072,367.013,498.118,366.733 M443.882,326.127c-0.302-0.01-0.909,1.146-1.051,1.375
		c-0.335,0.541-0.632,1.103-0.927,1.662c-0.788,1.515-1.482,3.03-2.075,4.635c-0.139,0.375-0.375,0.757-0.49,1.136
		c-0.045,0.146-0.012,0.304-0.059,0.464c-0.059,0.189-0.111,0.383-0.167,0.576c-0.22,0.785-0.464,1.572-0.658,2.363
		c-0.209,0.852-0.232,1.752-0.312,2.619c-0.065,0.709-0.316,1.619,0.167,2.235c0.551,0.706,1.056-0.071,1.313-0.573
		c0.355-0.686,0.675-1.395,1.051-2.074c0.399-0.725,0.788-1.373,1.278-2.033c0.354-0.471,0.691-0.945,1.013-1.451
		c0.427-0.68,1.128-1.129,1.605-1.764c0.394-0.522,1.204-0.375,1.126-1.27c-0.033-0.39-0.175-0.747-0.197-1.145
		c-0.018-0.399-0.037-0.795-0.075-1.194c-0.072-0.762-0.187-1.521-0.331-2.269c-0.084-0.434-0.152-0.871-0.248-1.299
		c-0.05-0.217-0.197-0.449-0.252-0.691C444.514,327.055,444.419,326.131,443.882,326.127 M457.578,325.092
		c-0.451,0.041-0.847,0.131-1.152,0.461c-0.285,0.309-0.38,0.738-0.251,1.143c0.271,0.813,1.138,1.156,1.932,0.994
		c0.808-0.164,1.5-0.852,1.207-1.723c-0.131-0.383-0.453-0.646-0.818-0.785c-0.179-0.073-0.364-0.115-0.551-0.139
		C457.814,325.025,457.645,325.092,457.578,325.092 M427.569,313.322c-0.222-0.275-0.657-0.191-0.963-0.205
		c-0.392-0.02-0.782-0.02-1.171,0c-0.762,0.034-1.526,0.051-2.287,0.065c-1.757,0.026-3.477,0.286-5.221,0.428
		c-0.868,0.069-1.686,0.277-2.54,0.39c-0.831,0.107-1.659,0.223-2.485,0.363c-0.754,0.133-1.5,0.309-2.248,0.461
		c-0.426,0.088-1.196,0.164-1.395,0.633c3.733,0.045,7.454-0.215,11.187,0.043c1.664,0.115,3.323,0.289,4.983,0.47
		c0.431,0.047,0.868,0.124,1.305,0.116c0.523-0.01,0.655-0.127,0.638-0.656c-0.015-0.395-0.005-0.745,0.102-1.128
		C427.558,313.99,427.678,313.645,427.569,313.322 M407.951,312.98c-0.903-0.5-1.875-0.133-2.82,0
		c-1.016,0.141-1.951,0.326-2.931,0.639c-1.925,0.613-3.875,1.135-5.817,1.693c-0.957,0.273-1.875,0.646-2.815,0.969
		c-0.411,0.143-0.845,0.227-1.238,0.414c-0.343,0.164-0.643,0.434-0.99,0.605c-0.82,0.406-1.662,0.771-2.467,1.203
		c-0.432,0.229-1.671,0.754-1.638,1.358c2.136-0.268,4.204-1.213,6.268-1.784c2.054-0.568,4.145-1,6.247-1.358
		c2.147-0.364,4.29-0.616,6.456-0.828c0.225-0.022,0.377-0.158,0.604-0.179c0.226-0.02,0.453-0.02,0.676-0.062
		c0.431-0.081,0.515-0.26,0.574-0.657C408.153,314.375,408.208,313.568,407.951,312.98 M428.327,309.263
		c-0.279-0.375-0.834-0.209-1.229-0.206c-0.61,0.002-1.219,0.014-1.829,0.031c-1.124,0.027-2.249,0.076-3.371,0.16
		c-1.246,0.094-2.455,0.369-3.692,0.517c-0.387,0.046-0.909-0.007-1.228,0.265c-0.437,0.365,0.47,0.489,0.711,0.487
		c1.195-0.021,2.387,0.122,3.579,0.224c1.168,0.103,2.33,0.163,3.484,0.336c0.518,0.075,1.048,0.24,1.568,0.276
		c0.475,0.036,0.76,0.339,1.203,0.446c0.618,0.154,0.601-0.637,0.643-1.051C428.214,310.276,428.475,309.734,428.327,309.263
		 M407.541,307.817c-0.313-0.14-0.528-0.003-0.825,0.068c-0.3,0.071-0.604,0.095-0.905,0.169c-0.669,0.166-1.331,0.361-1.996,0.537
		c-1.341,0.354-2.666,0.765-3.978,1.223c-1.384,0.482-2.747,1.014-4.128,1.507c-0.475,0.169-0.978,0.343-1.433,0.562
		c-0.167,0.08-0.342,0.296-0.123,0.431c0.195,0.117,0.441,0.069,0.655,0.045c0.359-0.038,0.717-0.216,1.08-0.282
		c0.331-0.062,0.665-0.113,0.998-0.166c0.659-0.107,1.318-0.255,1.983-0.339c1.311-0.166,2.587-0.446,3.916-0.575
		c0.813-0.08,1.625-0.147,2.438-0.223c0.662-0.064,1.312-0.214,1.977-0.189c0.802,0.028,0.735-0.555,0.608-1.176
		C407.71,308.933,407.868,308.209,407.541,307.817 M428.808,305.545c-0.759-0.205-1.55,0.011-2.319,0.016
		c-0.985,0.012-1.942,0-2.926,0.118c-0.956,0.11-1.913,0.133-2.87,0.229c-0.166,0.016-0.68,0.002-0.795,0.156
		c-0.145,0.2,0.767,0.318,0.915,0.334c1.534,0.188,2.985,0.311,4.502,0.564c0.91,0.156,1.883,0.429,2.811,0.269
		c0.462-0.079,0.586-0.298,0.689-0.741C428.885,306.184,428.897,305.851,428.808,305.545 M407.061,306.304
		c0.289-0.377,0.047-0.849-0.069-1.239c-0.112-0.369-0.204-1.082-0.669-1.137c-0.48-0.055-0.938,0.15-1.398,0.242
		c-0.53,0.105-1.039,0.164-1.565,0.324c-1.021,0.305-2.045,0.51-3.042,0.881c-0.755,0.283-1.557,0.414-2.31,0.689
		c-0.284,0.105-0.71,0.271-0.651,0.65c0.446,0.275,0.98,0.009,1.446-0.067c0.994-0.166,2.018-0.233,3.02-0.326
		c0.843-0.077,1.691-0.159,2.539-0.192c0.508-0.019,1.021-0.02,1.531,0.033C406.281,306.207,406.657,306.477,407.061,306.304
		 M428.808,302.312c-0.594-0.321-1.63-0.155-2.284-0.138c-0.422,0.011-0.805-0.086-1.221-0.127
		c-0.397-0.045-0.776,0.117-1.173,0.141c-0.695,0.038-1.454-0.055-2.137,0.124c-0.627,0.161-0.199,0.545,0.239,0.603
		c1.531,0.198,3.075,0.379,4.594,0.668c0.412,0.076,1.879,0.647,2.071,0.069C429.023,303.277,429.023,302.658,428.808,302.312
		 M404.993,300.178c-0.664-0.082-1.455,0.228-2.102,0.359c-0.792,0.162-1.523,0.455-2.304,0.65
		c-0.714,0.179-1.416,0.396-2.132,0.558c-0.237,0.055-0.451,0.162-0.483,0.43c0.224,0.228,0.594,0.176,0.879,0.148
		c1.565-0.144,3.124-0.287,4.698-0.357c0.619-0.027,1.387,0.182,1.942-0.18C405.961,301.481,405.32,300.417,404.993,300.178
		 M347.594,340.029c0.247-0.09,1.642-0.804,1.576-0.107c-0.05,0.57-0.485,1.109-0.842,1.529c-0.461,0.541-0.808,1.146-1.297,1.67
		c-0.482,0.515-1.066,0.951-1.524,1.483c-0.5,0.583-0.805-0.062-0.868-0.577c-0.082-0.677-0.187-1.35-0.266-2.025
		c-0.042-0.408-0.062-0.688,0.309-0.922c0.249-0.156,0.539-0.261,0.813-0.362C346.188,340.463,346.898,340.272,347.594,340.029
		 M350.688,332.524c0.279-0.069,0.566-0.166,0.859-0.118c0.263,0.047,0.22,0.272,0.231,0.5c0.011,0.403-0.051,0.831-0.238,1.197
		c-0.207,0.411-0.47,0.452-0.856,0.611c-0.437,0.182-0.87,0.371-1.293,0.574c-0.932,0.445-1.868,0.877-2.801,1.311
		c-0.441,0.203-0.874,0.42-1.311,0.634c-0.365,0.177-0.971,0.621-1.403,0.524c-0.365-0.084-0.451-0.529-0.53-0.836
		c-0.121-0.471-0.349-0.944-0.391-1.43c-0.072-0.814,1.248-0.957,1.802-1.129c0.448-0.138,0.854-0.376,1.297-0.521
		c0.517-0.172,1.044-0.309,1.57-0.452C348.65,333.107,349.659,332.789,350.688,332.524 M351.102,326.607
		c0.293-0.083,0.601-0.111,0.896,0c0.133,0.229,0.207,0.493,0.207,0.758c-0.003,0.53-0.323,0.785-0.78,0.967
		c-1.109,0.438-2.221,0.883-3.334,1.31c-0.31,0.12-0.629,0.221-0.94,0.338c-0.096,0.033-0.231,0.181-0.315,0.207
		c-0.069-0.004-0.138-0.004-0.207,0c-0.13,0.05-0.071,0.161-0.241,0.135c-0.078-0.018-0.145,0.005-0.199,0.067
		c-0.179,0.154-0.318,0.119-0.525,0.208c-0.216,0.095-0.438,0.233-0.681,0.321c-0.249,0.1-0.499,0.201-0.739,0.316
		c-0.538,0.256-1.048,0.566-1.609,0.768c-0.249,0.088-0.667,0.283-0.877,0.076c-0.199-0.195-0.32-0.453-0.432-0.705
		c-0.15-0.343-0.599-1.115-0.321-1.449c0.303-0.366,0.845-0.553,1.29-0.67c0.502-0.127,0.945-0.4,1.442-0.553
		C346.184,327.957,348.633,327.276,351.102,326.607 M345.254,322.34c1.375-0.379,2.754-0.75,4.167-0.949
		c0.645-0.096,2.476-0.494,2.141,0.835c-0.153,0.593-0.95,0.644-1.43,0.805c-0.692,0.233-1.383,0.468-2.073,0.706
		c-1.336,0.46-2.667,0.93-3.991,1.422c-1.291,0.481-2.548,1.047-3.841,1.516c-0.575,0.212-1.041,0.357-1.368-0.273
		c-0.211-0.404-0.8-1.035-0.697-1.512c0.109-0.5,1.062-0.625,1.446-0.766c0.624-0.224,1.235-0.486,1.86-0.711
		c0.633-0.229,1.268-0.355,1.923-0.492C344.026,322.789,344.624,322.511,345.254,322.34 M338.99,320.138
		c0.334,0.042,1.439,0.03,0.997,0.657c-0.235,0.344-0.744,0.434-1.113,0.537c-0.217,0.059-0.372,0.17-0.574,0.252
		c-0.302,0.115-0.63,0.146-0.93,0.271c-0.554,0.232-0.985,0.309-1.428-0.176c-0.329-0.357-0.672-0.753-0.977-1.137
		c-0.155-0.196-0.265-0.428-0.244-0.681c0.212-0.173,0.495-0.198,0.759-0.187C336.656,319.731,337.825,319.986,338.99,320.138
		 M355.988,317.66c0.181,0.405,0.398,0.791,0.548,1.213c0.07,0.205,0.129,0.418,0.143,0.635c0.013,0.256-0.281,0.294-0.495,0.32
		c-0.945,0.116-2.028-0.142-2.975-0.227c-2.22-0.208-4.439-0.428-6.66-0.645c-2.218-0.217-4.436-0.431-6.653-0.639
		c-1.106-0.102-2.213-0.201-3.319-0.3c-0.981-0.083-2.038-0.021-2.958-0.431c0.135-0.364,0.583-0.406,0.908-0.459
		c0.498-0.075,0.99-0.18,1.491-0.252c1.077-0.159,2.166-0.267,3.255-0.347c2.072-0.155,4.155-0.259,6.232-0.306
		c2.015-0.046,4.031-0.036,6.043,0.057c0.969,0.045,1.959,0.062,2.919,0.184c0.265,0.033,0.841,0.098,1.04,0.298
		C355.737,316.994,355.859,317.367,355.988,317.66 M346.56,307.817c0.309-0.065,0.766-0.187,0.966,0.118
		c0.133,0.197,0.28,0.396,0.307,0.641c0.071,0.658-0.632,0.799-1.117,0.973c-1.342,0.48-2.686,0.984-4.025,1.498
		c-1.269,0.484-2.491,1-3.701,1.589c-0.689,0.331-1.388,0.629-2.088,0.928c-0.615,0.263-1.284,0.69-1.929,0.845
		c-0.316,0.076-1.475,0.816-1.153-0.08c0.208-0.591,0.633-1.166,0.943-1.709c0.284-0.5,0.513-1.267,1.054-1.537
		c0.62-0.313,1.27-0.554,1.924-0.793c1.409-0.517,2.865-0.912,4.291-1.383C343.487,308.428,345.062,308.139,346.56,307.817
		 M340.227,305.545c-0.314,0.144-2.138,1.289-1.767,0.117c0.234-0.725,0.51-1.484,0.928-2.129c0.36-0.551,1.241-0.617,1.822-0.742
		c0.817-0.176,1.619-0.42,2.442-0.564c0.438-0.079,0.881-0.118,1.326-0.122c0.281,0.202,0.563,0.519,0.595,0.875
		c0.052,0.586-0.772,0.772-1.191,0.918c-0.687,0.237-1.332,0.549-1.994,0.836C341.684,305.039,340.934,305.221,340.227,305.545
		 M363.628,348.151c0.278,0.322,1.215-0.588,1.309-0.827c0.098-0.244,0.044-0.537,0.017-0.793c-0.049-0.474-0.093-0.947-0.145-1.421
		c-0.231-2.043-0.568-4.087-0.91-6.116c-1.138-6.742-2.989-13.472-5.724-19.744c-1.353-3.1-3.041-5.996-4.74-8.91
		c-0.426-0.731-0.854-1.457-1.378-2.127c-0.209-0.266-0.424-0.527-0.611-0.811c-0.074-0.111-0.236-0.477-0.342-0.515
		c-0.223-0.08-0.514-0.646-0.664-0.845c-0.2-0.258-0.387-0.529-0.584-0.791c-0.167-0.223-0.241-0.539-0.406-0.74
		c-0.221-0.268-0.569-0.407-0.8-0.686c-0.484-0.576-0.95-1.218-1.489-1.738c-0.585-0.563-1.034-1.292-1.681-1.78
		c-0.517-0.391-0.667-1.018-1.361-1.176c-0.621-0.142-1.285-0.12-1.92-0.202c-1.561-0.216-3.087-0.458-4.639-0.69
		c-1.772-0.268-3.565-0.466-5.324-0.816c-0.699-0.138-1.327-0.288-1.581,0.545c-0.103,0.326-0.167,0.65,0.207,0.781
		c0.322,0.109,0.695,0.135,1.029,0.202c1.681,0.33,3.392,0.647,5.093,0.861c0.378,0.048,0.773,0.079,1.129,0.237
		c0.404,0.18,0.448,0.384,0.369,0.805c-0.118,0.627-0.487,1.174-0.679,1.781c-0.495,1.59-1.41,3.065-2.117,4.56
		c-0.17,0.361-0.231,0.652-0.472,0.981c-0.227,0.304-0.365,0.696-0.534,1.036c-0.365,0.728-0.768,1.434-1.175,2.14
		c-0.834,1.45-1.695,2.88-2.582,4.299c-0.329,0.532-0.647,1.251-1.21,1.575c-0.556,0.318-1.509-0.036-2.107-0.094
		c-0.879-0.086-1.762-0.154-2.644-0.252c-0.623-0.069-1.252-0.141-1.58,0.5c-0.618,1.225,0.856,1.383,1.72,1.433
		c1.303,0.075,2.582,0.151,3.882,0.299c0.734,0.079,1.676,0.005,2.365,0.267c0.603,0.231,1.16,0.988,1.598,1.447
		c0.265,0.277,0.47,0.639,0.729,0.938c0.255,0.294,0.506,0.581,0.73,0.902c0.468,0.679,0.928,1.365,1.399,2.043
		c3.899,5.613,6.328,12.404,7.25,19.158c0.491,3.633,0.437,7.25,0.299,10.903c-0.032,0.899-0.143,1.757-0.333,2.633
		c-0.113,0.523-0.019,1.39-0.409,1.8c-0.368,0.385-1.814-0.271-2.279-0.358c-0.381-0.069-0.768-0.11-1.152-0.156
		c-0.189-0.024-0.376-0.046-0.568-0.062c-0.083-0.008-0.205,0.061-0.243,0.056c-0.476-0.106-1.018-0.159-1.542-0.073
		c-0.694,0.114-0.773,0.618-0.73,1.246c0.031,0.426,0.059,0.691-0.232,1.02c-0.226,0.256-0.463,0.504-0.719,0.734
		c-0.507,0.46-1.085,0.833-1.73,1.08c-0.743,0.286-1.538,0.398-2.321,0.514c-0.785,0.116-1.565,0.358-2.356,0.398
		c-1.624,0.081-3.258,0.174-4.887,0.154c-3.215-0.047-6.42-0.401-9.617-0.745c-1.795-0.191-3.591-0.394-5.395-0.519
		c-1.606-0.113-3.436-0.387-5.022-0.027c0.148,0.492,1.372,0.381,1.748,0.4c0.792,0.045,1.59,0.084,2.382,0.151
		c1.64,0.142,3.271,0.388,4.888,0.712c3.195,0.643,6.412,1.189,9.644,1.627c1.76,0.236,3.53,0.426,5.307,0.52
		c1.762,0.095,3.505-0.045,5.257-0.268c0.818-0.102,1.64-0.234,2.442-0.438c0.576-0.143,1.118-0.256,1.598-0.614
		c0.305-0.226,0.605-0.548,0.805-0.872c0.036-0.053,0.186-0.146,0.204-0.186c0.049-0.107,0.036-0.234,0.068-0.346
		c0.182-0.598,0.175-1.41-0.196-1.943c-0.301-0.443-0.897-1.25,0.076-1.336c0.704-0.061,1.491,0.388,2.183,0.523
		c1.77,0.34,3.422,0.928,5.125,1.523c3.167,1.106,6.385,2.09,9.666,2.793c1.656,0.356,3.335,0.621,5.021,0.773
		c1.728,0.157,3.465,0.133,5.198,0.169c1.472,0.031,3.034-0.083,4.48-0.378c0.967-0.197,2.272-0.587,2.591-1.65
		c0.192-0.637-0.034-1.172-0.512-1.6c-0.194-0.174-0.445-0.316-0.507-0.584c-0.079-0.328,0.49-0.412,0.726-0.441
		c1.635-0.2,3.269-0.248,4.911-0.233c1.531,0.017,3.06-0.011,4.559,0.155c1.757,0.191,3.524,0.303,5.291,0.397
		c1.595,0.084,3.214,0.12,4.81,0.056c1.381-0.053,2.685-0.258,3.844-1.151c0.367-0.281,0.926-1.058,1.445-0.924
		c0.155,0.666-0.175,1.271-0.606,1.754c-1.008,1.147-2.308,1.981-3.768,2.422c-1.548,0.463-3.364,0.653-4.965,0.384
		c-0.243-0.04-2.136-0.602-1.847,0.008c0.159,0.34,0.942,0.6,1.262,0.762c2.988,1.543,6.32,1.72,9.481,0.492
		c0.568-0.224,1.066-0.447,1.496-0.892c0.109-0.112,0.165-0.144,0.304-0.201c0.154-0.062,0.127-0.219,0.226-0.325
		c0.133-0.141,0.293-0.258,0.413-0.412c0.101-0.137,0.131-0.293,0.247-0.422c0.452-0.494,0.571-1.486,0.619-2.139
		c0.045-0.697-0.029-1.419-0.224-2.093c-0.412-1.411-1.479-2.472-2.809-3.06c-0.74-0.326-1.565-0.498-2.372-0.375
		c-0.463,0.07-1.34,0.599-1.724,0.239c-0.184-0.704,0.37-1.424,0.795-1.93c0.444-0.524,1.007-0.95,1.655-1.181
		c0.181-0.065,0.266-0.192,0.453-0.233c0.177-0.041,0.357-0.06,0.538-0.097c0.37-0.077,0.746-0.131,1.126-0.166
		c0.816-0.08,1.629-0.033,2.441,0.043c1.703,0.162,3.421,0.453,5.105,0.736c1.592,0.266,3.133,0.861,4.709,0.197
		c0.728-0.307,1.62-0.635,2.171-1.225c0.133-0.137,0.182-0.313,0.276-0.481c0.077-0.134,0.207-0.203,0.281-0.349
		c0.157-0.314,0.295-0.635,0.403-0.975c0.37-1.133-0.006-2.625-1.226-3.07c-0.766-0.278-1.585-0.414-2.364-0.12
		c-0.663,0.251-1.225,0.432-1.943,0.373c-0.595-0.05-1.185-0.484-1.545-0.941c-0.305-0.387-0.51-1.007-0.976-1.235
		c-0.625-0.309-1.535,0.196-2.126,0.4c-0.772,0.268-1.553,0.52-2.328,0.773c-1.634,0.541-3.276,1.08-4.923,1.578
		c-3.409,1.031-6.766,2.375-10.071,3.692c-3.37,1.345-6.727,2.718-10.079,4.103c-1.711,0.709-3.422,1.427-5.13,2.143
		c-1.63,0.688-3.247,1.49-4.933,2.034c-0.31,0.101-0.625,0.288-0.944,0.42c-0.405,0.168-0.808,0.347-1.216,0.515
		c-0.646,0.272-1.261,0.494-1.883,0.816c-1.566,0.804-3.276,1.375-4.955,1.887c1.723-1.342,3.903-2.105,5.851-3.027
		c1.974-0.933,3.991-1.767,5.961-2.725c0.509-0.244,1.026-0.426,1.541-0.648c0.209-0.088,0.487-0.381,0.723-0.344
		c0.15,0.018,0.236-0.144,0.386-0.188c0.507-0.154,0.955-0.452,1.458-0.63c0.457-0.166,0.871-0.441,1.326-0.62
		c2.25-0.899,4.413-2.022,6.673-2.9c0.743-0.286,1.475-0.604,2.223-0.923c0.388-0.162,0.778-0.329,1.181-0.451
		c0.126-0.035,0.158-0.154,0.327-0.197c0.146-0.03,0.328-0.021,0.431-0.146c0.116-0.139,0.453-0.157,0.623-0.207
		c0.16-0.043,0.322-0.217,0.48-0.273c0.323-0.119,0.677-0.11,0.982-0.285c0.313-0.176,0.556-0.219,0.877-0.334
		c0.342-0.125,0.644-0.311,1.008-0.414c0.33-0.098,0.674-0.202,0.988-0.344c0.73-0.338,1.513-0.584,2.266-0.869
		c1.704-0.643,3.416-1.262,5.127-1.881c0.849-0.308,1.694-0.625,2.55-0.91c0.445-0.15,1.162-0.194,1.274-0.744
		c0.29-1.369-1.701-1.514-2.585-1.26c-0.539,0.153-1.384,0.334-1.723-0.285c-0.229-0.418-0.047-0.912,0.339-1.156
		c0.771-0.483,2.287-0.521,3.096-0.126c0.638,0.313,1.061,0.784,1.768,0.969c0.687,0.177,1.223,0.088,1.808-0.308
		c0.27-0.189,0.483-0.381,0.651-0.663c0.096-0.169,0.199-0.337,0.383-0.425c0.493-0.228,1.014,0.047,1.188,0.526
		c0.157,0.433,0.29,1.335,0.913,1.269c0.706-0.071,1.36-0.444,2.056-0.59c0.802-0.17,1.58-0.447,2.382-0.643
		c0.571-0.138,1.337-0.125,1.851-0.424c0.246-0.146,0.341-0.453,0.212-0.71c-0.11-0.216-0.389-0.261-0.599-0.313
		c-0.255-0.06-0.57-0.121-0.789-0.273c-0.038-0.028-0.196-0.049-0.196-0.049c-0.049-0.047-0.032-0.172-0.087-0.232
		c-0.34-0.404-0.241-0.99,0.229-1.242c0.402-0.214,0.914-0.214,1.355-0.156c0.249,0.028,0.503,0.086,0.739,0.174
		c0.231,0.088,0.315,0.272,0.502,0.412c0.144,0.107,0.185,0.016,0.309,0.196c0.09,0.13,0.191,0.255,0.272,0.397
		c0.139,0.244,0.236,0.519,0.395,0.753c0.449,0.649,1.242,0.301,1.857,0.149c0.646-0.154,1.473-0.102,2.05-0.438
		c0.397-0.231-0.3-1.461-0.515-1.767c-0.4-0.561-1.26-0.776-1.882-0.989c-0.504-0.175-1.368-0.157-1.507-0.806
		c-0.073-0.33,0.06-0.658,0.077-0.986c0.031-0.528-0.228-0.563-0.694-0.533c-0.872,0.051-1.767,0.372-2.614,0.585
		c-0.837,0.208-1.669,0.438-2.496,0.685c-1.472,0.433-2.943,0.856-4.405,1.307c-1.631,0.502-3.237,1.096-4.854,1.644
		c-0.718,0.245-1.43,0.488-2.134,0.775c-0.686,0.278-1.407,0.423-2.099,0.679c-0.357,0.135-0.65,0.336-1.029,0.448
		c-0.401,0.116-0.787,0.259-1.174,0.418c-0.819,0.338-1.657,0.634-2.486,0.946c-1.577,0.596-3.091,1.303-4.657,1.926
		c-1.553,0.615-3.081,1.287-4.595,1.986c-0.359,0.166-0.867,0.295-1.172,0.541c-0.249,0.205-0.731,0.237-1.034,0.393
		c-0.73,0.377-1.459,0.75-2.232,1.046c-1.64,0.632-3.173,1.552-4.78,2.261c-1.669,0.738-3.252,1.655-4.873,2.491
		c-1.593,0.819-3.187,1.737-4.844,2.425c-0.778,0.324-1.497,0.733-2.255,1.098c-0.345,0.168-0.686,0.35-1.027,0.521
		c-0.256,0.133-0.561,0.17-0.801,0.294c-0.757,0.39-1.483,0.843-2.253,1.216c-0.778,0.379-1.558,0.75-2.336,1.127
		c-0.758,0.367-1.567,0.652-2.311,1.039c-0.608,0.313-1.194,0.756-1.91,0.75c0.185-0.492,0.771-0.584,1.169-0.84
		c0.488-0.314,1-0.555,1.531-0.795c1.182-0.542,2.319-1.197,3.478-1.785c2.195-1.117,4.415-2.228,6.554-3.396
		c1.967-1.074,4.064-2.116,6.078-3.183c2.072-1.097,4.149-2.205,6.244-3.289c0.849-0.435,1.714-0.832,2.568-1.252
		c0.681-0.338,1.314-0.791,2.006-1.09c0.796-0.34,1.594-0.656,2.36-1.059c0.706-0.376,1.398-0.792,2.153-1.053
		c0.737-0.254,1.393-0.658,2.095-0.991c0.706-0.332,1.422-0.636,2.141-0.935c1.655-0.69,3.289-1.429,4.955-2.1
		c3.377-1.354,6.732-2.701,10.192-3.841c1.651-0.543,3.297-1.126,4.963-1.625c1.514-0.455,3.034-0.834,4.567-1.231
		c3.569-0.918,7.17-1.642,10.798-2.259c3.673-0.629,7.353-0.873,11.06-1.194c0.335-0.031,0.313-0.246,0.355-0.554
		c0.023-0.19,0.037-0.384,0.049-0.581c0.026-0.42,0.074-0.841,0.134-1.262c0.116-0.771,0.326-1.57,0.308-2.354
		c-0.014-0.613-0.179-1.168-0.851-1.242c-0.576-0.06-1.175,0.022-1.75,0.088c-3.215,0.382-6.417,0.871-9.594,1.507
		c-1.766,0.353-3.535,0.636-5.29,1.041c-1.64,0.377-3.268,0.79-4.891,1.239c-3.362,0.928-6.632,2.051-9.905,3.258
		c-3.48,1.287-6.958,2.629-10.383,4.048c-1.628,0.674-3.245,1.394-4.801,2.228c-1.555,0.832-3.164,1.527-4.74,2.317
		c-3.126,1.569-6.212,3.183-9.304,4.799c-0.852,0.446-1.691,0.909-2.542,1.354c-0.369,0.195-0.737,0.404-1.133,0.539
		c-0.359,0.123-0.573,0.365-0.888,0.551c-1.403,0.82-2.878,1.504-4.29,2.303c-1.25,0.715-2.488,1.278-3.694,2.034
		c-0.699,0.437-1.411,0.926-2.137,1.308c-0.755,0.403-1.561,0.696-2.318,1.102c-3.201,1.718-6.464,3.337-9.704,4.98
		c-0.645,0.328-1.476,1.021-2.217,1.061c-0.813,0.037-0.372-1.247-0.332-1.725c0.079-0.951,0.157-1.908,0.239-2.859
		c0.069-0.831,0.187-1.639,0.13-2.471c-0.063-0.854,0.086-1.705,0.007-2.552c-0.054-0.567-0.226-1.252,0.315-1.632
		c0.581-0.404,1.31-0.626,1.967-0.882c0.684-0.267,1.376-0.507,2.063-0.757c1.663-0.596,3.322-1.164,5.023-1.646
		c1.667-0.477,3.394-1.059,5.117-1.279c0.788-0.099,1.533-0.432,2.331-0.558c0.306-0.047,0.807-0.119,0.97,0.201
		c0.157,0.31,0.229,0.655,0.275,0.997c0.119,0.88,0.146,1.777,0.227,2.66C363.337,346.77,363.274,348.065,363.628,348.151
		 M393.43,278.151c-0.288-0.383-0.716-0.467-1.169-0.479c-0.227-0.011-0.495,0.065-0.741,0.06c-0.237-0.007-0.465,0.011-0.697,0.064
		c-0.458,0.1-0.867-0.03-1.321,0.036c-0.304,0.043-0.598,0.15-0.901,0.071c-0.554-0.148-1.332-0.002-1.905,0.02
		c-0.535,0.021-1.059,0.133-1.593,0.157c-1.117,0.057-2.237,0.129-3.354,0.18c-2.412,0.105-4.804,0.803-7.177,1.198
		c-0.608,0.104-1.216,0.214-1.816,0.375c-0.46,0.12-0.891,0.327-1.349,0.453c-1.038,0.274-2.191,0.337-3.097,0.962
		c1.204,0.197,2.454-0.107,3.655-0.23c1.128-0.12,2.258-0.227,3.388-0.29c2.342-0.131,4.691-0.1,7.034-0.118
		c2.363-0.02,4.704,0.154,7.059,0.349c0.567,0.046,1.133,0.097,1.703,0.145c0.278,0.026,0.557,0.049,0.837,0.075
		c0.183-0.149,0.332-0.334,0.46-0.533C392.896,279.954,393.524,279.011,393.43,278.151 M394.67,275.398
		c0.32-0.114,0.37-0.555,0.482-0.824c0.119-0.293,0.434-0.71,0.168-1.016c-0.278-0.323-0.952-0.283-1.329-0.286
		c-1.528-0.017-3.06,0.033-4.591,0.022c-1.678-0.012-3.384,0.209-5.053,0.384c-0.447,0.048-0.864,0.245-1.309,0.31
		c-0.477,0.07-0.96,0.08-1.433,0.165c-0.403,0.071-0.794,0.152-1.201,0.192c-0.212,0.019-0.532,0.044-0.6,0.298
		c0.664,0.235,1.392,0.154,2.082,0.128c0.672-0.027,1.344-0.033,2.014-0.028c1.312,0.01,2.628,0.05,3.938,0.126
		c1.25,0.073,2.49,0.226,3.733,0.322c0.547,0.044,1.118,0.083,1.654,0.19c0.266,0.052,0.512-0.079,0.781-0.029
		C394.22,275.391,394.449,275.473,394.67,275.398 M396.804,268.999c-0.349-0.298-0.9-0.081-1.304-0.055
		c-0.545,0.036-1.091,0.056-1.639,0.076c-0.998,0.038-1.99,0.079-2.986,0.146c-1.101,0.076-2.215,0.124-3.306,0.292
		c-0.367,0.055-0.787,0.117-1.137,0.246c-0.34,0.123-0.244,0.492,0.091,0.539c0.913,0.127,1.91,0.049,2.835,0.087
		c1.039,0.041,2.078,0.107,3.116,0.202c1.121,0.101,2.24,0.264,3.368,0.318C396.683,270.889,396.721,269.584,396.804,268.999
		 M397.424,264.042c-0.635-0.091-1.284-0.009-1.919,0.054c-0.663,0.065-1.281,0.018-1.937,0.017c-0.35-0.002-0.684,0.11-1.03,0.136
		c-0.267,0.02-0.536-0.041-0.8,0c-0.711,0.109-0.13,0.552,0.264,0.588c1.324,0.12,2.666,0.357,3.977,0.581
		c0.333,0.059,0.661,0.159,0.998,0.205c0.332,0.045,0.581,0.114,0.634-0.253C397.665,264.982,397.715,264.357,397.424,264.042
		 M407.816,240.643c-0.126,0.143-0.317,0.131-0.192,0.419c0.066,0.153,0.258,0.193,0.404,0.214c0.492,0.078,0.937,0.206,1.406,0.381
		c0.57,0.21,1.141,0.284,1.707,0.531c0.624,0.273,1.272,0.45,1.921,0.66c1.255,0.411,2.507,0.861,3.73,1.346
		c0.583,0.229,1.13,0.568,1.717,0.774c0.305,0.109,0.765,0.125,1.009-0.132c0.354-0.372,0.45-1.119,0.622-1.583
		c0.104-0.285,0.183-0.598,0.065-0.889c-0.25-0.15-0.531-0.237-0.811-0.302c-0.665-0.162-1.339-0.272-2.011-0.388
		c-0.326-0.055-0.657-0.069-0.982-0.108c-0.261-0.033-0.466-0.189-0.734-0.168c-0.291,0.023-0.479-0.16-0.768-0.138
		c-0.273,0.021-0.487-0.133-0.758-0.163c-0.699-0.08-1.396-0.122-2.098-0.199C410.643,240.74,409.232,240.603,407.816,240.643
		 M399.832,241.053c-0.426-0.645-1.487-0.405-2.137-0.414c-1.087-0.01-2.17-0.108-3.254-0.143c-2.132-0.067-4.31-0.097-6.431,0.102
		c-2.141,0.196-4.293,0.091-6.42,0.448c-1.038,0.175-2.069,0.387-3.106,0.568c-0.819,0.143-2.084,0.191-2.739,0.75
		c1.182,0.093,2.37-0.003,3.554-0.081c1.179-0.078,2.34-0.065,3.52,0.002c2.308,0.13,4.595,0.227,6.896,0.481
		c2.278,0.247,4.571,0.545,6.819,0.981c0.544,0.107,1.09,0.232,1.649,0.268c0.243,0.016,0.627,0.132,0.627-0.176
		c-0.002-0.211-0.052-0.42-0.037-0.63C398.83,242.418,399.756,241.883,399.832,241.053 M420.96,237.82
		c-0.735-0.378-1.688-0.393-2.498-0.516c-0.891-0.134-1.787-0.245-2.679-0.396c-0.903-0.157-1.823-0.272-2.736-0.121
		c-0.074,0.58,1.07,0.776,1.457,0.919c1.635,0.602,3.291,1.132,4.907,1.784c0.545,0.22,1.267,0.684,1.488-0.116
		C421.038,238.873,420.971,238.333,420.96,237.82 M400.45,239.267c0.182-0.158,0.438-0.311,0.452-0.576
		c0.015-0.265,0.234-0.359,0.266-0.613c0.051-0.393,0.549-0.962,0.121-1.307c-0.579-0.466-1.735-0.111-2.402-0.113
		c-1.022-0.003-1.984-0.08-3.047-0.008c-0.591,0.041-1.153,0.212-1.748,0.234c-0.608,0.025-1.202,0.078-1.807,0.143
		c-0.317,0.033-2.838-0.036-2.709,0.518c0.193,0.283,1.205,0.197,1.525,0.226c0.632,0.064,1.256,0.159,1.885,0.257
		c1.263,0.202,2.528,0.364,3.788,0.581C397.99,238.815,399.217,239.212,400.45,239.267 M402.725,232.452
		c-0.662-0.418-1.787-0.119-2.531-0.115c-0.797,0.005-1.592-0.018-2.389-0.021c-0.869-0.007-1.731,0.044-2.593,0.098
		c-0.659,0.038-1.606-0.15-2.193,0.176c0.237,0.626,1.815,0.499,2.339,0.579c1.044,0.166,2.079,0.399,3.13,0.54
		c1.052,0.142,2.085,0.466,3.134,0.58c0.5,0.055,0.727-0.197,0.915-0.654C402.688,233.263,402.729,232.852,402.725,232.452
		 M403.135,228.39c-0.34-0.327-1.036-0.128-1.456-0.091c-0.474,0.043-0.948,0.103-1.424,0.143c-1.125,0.08-2.264-0.084-3.382,0.086
		c0.015,0.368,1.13,0.383,1.386,0.428c0.75,0.124,1.492,0.271,2.235,0.415c0.761,0.145,1.526,0.288,2.294,0.375
		C403.329,229.806,403.253,228.751,403.135,228.39 M420.756,218.823c-0.571-0.478-1.586-0.624-2.294-0.784
		c-0.372-0.086-0.788-0.012-1.125-0.206c-0.298-0.168-0.743-0.205-1.075-0.284c-0.817-0.193-1.638-0.374-2.456-0.56
		c-1.612-0.365-3.198-0.795-4.829-1.049c-0.911-0.14-1.82-0.301-2.729-0.451c-0.765-0.122-1.516-0.337-2.291-0.383
		c-0.162-0.008-0.557-0.079-0.688,0.03c-0.039,0.031-0.123,0.174,0.005,0.178c0.101,0.217,0.516,0.179,0.709,0.269
		c0.768,0.36,1.639,0.519,2.456,0.719c3.463,0.848,6.865,2.054,10.143,3.448c0.689,0.295,1.368,0.594,2.04,0.927
		c0.426,0.212,1.002,0.568,1.499,0.505C420.879,221.087,420.852,219.351,420.756,218.823 M421.376,215.313
		c-1.525-0.593-3.273-0.815-4.889-1.032c-0.704-0.096-1.498-0.31-2.212-0.205c-0.214,0.032-0.381,0.142-0.444,0.357
		c-0.083,0.272,0.481,0.481,0.692,0.562c1.477,0.587,3.043,0.926,4.512,1.555c0.345,0.151,0.699,0.268,1.034,0.446
		c0.204,0.107,0.743,0.515,0.962,0.312C421.369,216.742,421.517,215.961,421.376,215.313 M402.861,213.18
		c-0.501-0.359-1.331-0.269-1.915-0.366c-0.706-0.117-1.435-0.024-2.129-0.167c-1.319-0.276-2.72-0.108-4.058-0.263
		c-1.459-0.165-2.952,0.006-4.414,0.079c-0.608,0.029-1.23,0.113-1.835,0.102c-0.532-0.01-1.266-0.151-1.687,0.27
		c0.668,0.367,1.485,0.161,2.21,0.222c0.788,0.069,1.564,0.216,2.352,0.262c1.533,0.092,3.064,0.387,4.582,0.632
		c1.583,0.255,3.139,0.561,4.704,0.898c0.594,0.128,1.308,0.333,1.649-0.294C402.522,214.182,403.071,213.616,402.861,213.18
		 M422.198,211.665c-0.483-0.32-1.098-0.364-1.662-0.41c-0.659-0.053-1.309-0.152-1.968-0.227c-0.692-0.078-1.382-0.132-2.081-0.12
		c-0.265,0-0.199,0.285-0.046,0.377c0.272,0.163,0.563,0.301,0.858,0.424c1.172,0.486,2.389,0.864,3.49,1.501
		c0.413,0.239,1.086,0.484,1.138-0.204c0.015-0.226-0.057-0.499,0.049-0.704C422.087,212.087,422.219,211.922,422.198,211.665
		 M404.1,210.013c-0.25-0.279-0.624-0.249-0.965-0.274c-0.471-0.034-0.949-0.044-1.426-0.046c-0.937-0.003-1.868,0.003-2.803-0.041
		c-0.881-0.039-1.764-0.082-2.646-0.059c-0.211,0.003-1.748,0.031-1.022,0.529c0.564,0.386,1.551,0.304,2.201,0.411
		c0.97,0.16,1.945,0.32,2.914,0.517c0.876,0.176,1.795,0.607,2.701,0.513c0.455-0.048,0.572-0.206,0.77-0.586
		C403.982,210.673,404.098,210.361,404.1,210.013 M404.993,206.09c0.133,0.437,0.131,1.022-0.123,1.415
		c-0.308,0.479-1.445-0.147-1.875-0.245c-0.651-0.148-1.329-0.254-1.987-0.385c-0.719-0.143-1.443-0.274-2.164-0.407
		c-0.317-0.059-0.63-0.131-0.913-0.281c-0.415-0.219-0.066-0.374,0.198-0.367c0.782,0.013,1.563,0.031,2.347,0.053
		C401.981,205.92,403.489,205.988,404.993,206.09"/>
	<path fill="#052946" d="M310.725,384.418l-5.402,14.858h10.608L310.725,384.418z M257.359,413.465
		c-4.869,0-8.987-1.417-11.146-2.23v-7.903h1.015c1.009,3.72,3.174,7.23,10.468,7.23c5.341,0,9.053-2.836,8.914-7.23
		c-0.132-4.731-3.44-7.089-10.332-10.403c-7.566-3.643-10-7.229-9.934-11.691c0-7.156,5.745-10.74,14.187-10.74
		c4.126,0,7.771,0.814,9.73,1.426v6.958h-0.945c-0.54-3.381-3.38-5.675-8.785-5.607c-4.928,0.071-8.169,2.297-8.376,6.212
		c-0.199,3.651,2.164,5.611,6.42,7.635c9.862,4.661,13.446,7.636,13.849,13.715C272.897,408.4,267.352,413.465,257.359,413.465
		 M297.828,385.43c-0.677-3.108-2.097-4.462-7.027-4.462h-2.302v25.34c0,3.918,1.083,5.062,4.598,5.062v1.007h-14.933v-1.007
		c3.518,0,4.596-1.144,4.596-5.062v-25.34h-2.23c-5,0-6.419,1.354-7.099,4.462h-1.007v-6.55h26.411v6.55H297.828z M315.729,412.376
		v-1.007c1.957,0,3.442-0.474,3.442-2.026c0-0.602-0.134-1.345-0.469-2.158l-1.759-5.135h-12.632l-1.624,4.531
		c-0.266,0.735-0.609,1.75-0.609,2.563c0,1.417,0.609,2.225,3.178,2.225v1.007H294.85v-1.007c2.636,0,3.515-1.824,4.932-5.674
		l9.868-26.815h4.654l10.07,27.63c1.351,3.582,1.89,4.725,5.065,4.859v1.007H315.729z M350.653,385.43
		c-0.605-3.108-2.092-4.462-7.029-4.462h-2.299v25.34c0,3.918,1.085,5.062,4.6,5.062v1.007h-14.933v-1.007
		c3.582,0,4.662-1.144,4.662-5.062v-25.34h-2.299c-4.928,0-6.415,1.354-7.091,4.462h-0.948v-6.55h26.351v6.55H350.653z
		 M352.879,412.376v-1.007c3.515,0,4.732-1.144,4.732-5.062v-21.35c0-3.917-1.217-5.069-4.732-5.069v-1.009h24.116v6.55h-1.01
		c-0.61-3.108-2.03-4.462-6.957-4.462h-2.905c-2.432,0-3.04,1.296-3.04,4.128v8.509h5.809c2.698,0,3.648-1.423,3.99-3.444h0.935
		v9.594h-0.935c-0.342-1.961-1.221-3.582-3.99-3.582h-5.809v10.472c0,3.377,0.407,3.646,3.04,3.646h4.662
		c3.982,0,6.079-1.958,6.49-4.594h0.94v6.681H352.879z M402.869,413.465c-4.859,0-8.982-1.417-11.146-2.23v-7.903h1.009
		c1.021,3.72,3.177,7.23,10.472,7.23c5.34,0,9.059-2.836,8.921-7.23c-0.134-4.731-3.446-7.089-10.338-10.403
		c-7.567-3.643-9.996-7.229-9.926-11.691c0-7.156,5.739-10.74,14.186-10.74c4.118,0,7.766,0.814,9.726,1.426v6.958h-0.943
		c-0.543-3.381-3.379-5.675-8.782-5.607c-4.932,0.071-8.171,2.297-8.376,6.212c-0.207,3.651,2.159,5.611,6.42,7.635
		c9.862,4.661,13.439,7.636,13.845,13.715C418.409,408.4,412.871,413.465,402.869,413.465 M443.336,385.43
		c-0.673-3.108-2.088-4.462-7.025-4.462h-2.297v25.34c0,3.918,1.081,5.062,4.591,5.062v1.007h-14.928v-1.007
		c3.581,0,4.662-1.144,4.662-5.062v-25.34h-2.295c-4.932,0-6.416,1.354-7.095,4.462h-0.945v-6.55h26.348v6.55H443.336z
		 M466.847,412.376l-10.201-17.621c4.592-0.201,8.785-2.373,8.785-7.022c0-4.933-3.11-6.765-7.168-6.765
		c-2.832,0-3.511,0.407-3.511,3.316v21.882c0,3.926,1.148,5.203,4.666,5.203v1.007h-14.93v-1.007c3.509,0,4.653-1.277,4.653-5.203
		v-21.274c0-2.628-0.062-5.003-3.645-5.003v-1.009h12.766c6.559,0,12.908,1.613,12.908,8.309c0,5.809-5.001,8.038-7.968,8.576
		l6.68,10.948c1.895,3.098,2.639,4.656,5.271,4.656c3.11,0,3.852-1.622,3.852-5.135v-21.276c0-3.917-1.152-5.069-4.658-5.069v-1.009
		h24.117v6.55h-1.019c-0.675-3.108-2.024-4.462-7.023-4.462h-2.835c-2.501,0-3.042,1.296-3.042,4.128v8.509h5.809
		c2.704,0,3.578-1.423,3.985-3.444h0.88v9.594h-0.88c-0.34-1.961-1.281-3.582-3.985-3.582h-5.809v10.472
		c0,3.377,0.408,3.646,3.042,3.646h4.591c3.984,0,6.079-1.958,6.554-4.594h0.946v6.681H466.847z M501.568,412.376v-1.007
		c3.517,0,4.669-1.144,4.669-5.062v-21.35c0-3.917-1.152-5.069-4.669-5.069v-1.009h24.05v6.55h-0.945
		c-0.676-3.108-2.097-4.462-7.025-4.462h-2.835c-2.499,0-3.039,1.296-3.039,4.128v8.509h5.807c2.7,0,3.584-1.423,3.92-3.444h0.943
		v9.594H521.5c-0.336-1.961-1.22-3.582-3.92-3.582h-5.807v10.472c0,3.377,0.403,3.646,3.039,3.646h4.59
		c3.985,0,6.084-1.958,6.488-4.594h0.943v6.681H501.568z M553.247,385.43c-0.677-3.108-2.159-4.462-7.093-4.462h-2.295v25.34
		c0,3.918,1.075,5.062,4.658,5.062v1.007h-14.932v-1.007c3.512,0,4.598-1.144,4.598-5.062v-25.34h-2.292
		c-4.938,0-6.354,1.354-7.029,4.462h-1.015v-6.55h26.35v6.55H553.247z"/>
</g>
</svg>
